<?xml version="1.0" encoding="utf-8"?>
<svg xmlns="http://www.w3.org/2000/svg" xmlns:xlink="http://www.w3.org/1999/xlink" width="400" height="300" viewBox="0 0 1600 1200">
<defs>
  <clipPath id="clip500">
    <rect x="0" y="0" width="1600" height="1200"/>
  </clipPath>
</defs>
<path clip-path="url(#clip500)" d="M0 1200 L1600 1200 L1600 0 L0 0  Z" fill="#ffffff" fill-rule="evenodd" fill-opacity="1"/>
<defs>
  <clipPath id="clip501">
    <rect x="320" y="0" width="1121" height="1121"/>
  </clipPath>
</defs>
<defs>
  <clipPath id="clip502">
    <rect x="140" y="164" width="1429" height="918"/>
  </clipPath>
</defs>
<path clip-path="url(#clip500)" d="M209.265 1016.92 L1552.76 1016.92 L1552.76 47.2441 L209.265 47.2441  Z" fill="#ffffff" fill-rule="evenodd" fill-opacity="1"/>
<defs>
  <clipPath id="clip503">
    <rect x="209" y="47" width="1344" height="971"/>
  </clipPath>
</defs>
<polyline clip-path="url(#clip503)" style="stroke:#000000; stroke-linecap:round; stroke-linejoin:round; stroke-width:2; stroke-opacity:0.1; fill:none" points="247.288,1016.92 247.288,47.2441 "/>
<polyline clip-path="url(#clip503)" style="stroke:#000000; stroke-linecap:round; stroke-linejoin:round; stroke-width:2; stroke-opacity:0.1; fill:none" points="564.149,1016.92 564.149,47.2441 "/>
<polyline clip-path="url(#clip503)" style="stroke:#000000; stroke-linecap:round; stroke-linejoin:round; stroke-width:2; stroke-opacity:0.1; fill:none" points="881.01,1016.92 881.01,47.2441 "/>
<polyline clip-path="url(#clip503)" style="stroke:#000000; stroke-linecap:round; stroke-linejoin:round; stroke-width:2; stroke-opacity:0.1; fill:none" points="1197.87,1016.92 1197.87,47.2441 "/>
<polyline clip-path="url(#clip503)" style="stroke:#000000; stroke-linecap:round; stroke-linejoin:round; stroke-width:2; stroke-opacity:0.1; fill:none" points="1514.73,1016.92 1514.73,47.2441 "/>
<polyline clip-path="url(#clip500)" style="stroke:#000000; stroke-linecap:round; stroke-linejoin:round; stroke-width:4; stroke-opacity:1; fill:none" points="209.265,1016.92 1552.76,1016.92 "/>
<polyline clip-path="url(#clip500)" style="stroke:#000000; stroke-linecap:round; stroke-linejoin:round; stroke-width:4; stroke-opacity:1; fill:none" points="247.288,1016.92 247.288,998.022 "/>
<polyline clip-path="url(#clip500)" style="stroke:#000000; stroke-linecap:round; stroke-linejoin:round; stroke-width:4; stroke-opacity:1; fill:none" points="564.149,1016.92 564.149,998.022 "/>
<polyline clip-path="url(#clip500)" style="stroke:#000000; stroke-linecap:round; stroke-linejoin:round; stroke-width:4; stroke-opacity:1; fill:none" points="881.01,1016.92 881.01,998.022 "/>
<polyline clip-path="url(#clip500)" style="stroke:#000000; stroke-linecap:round; stroke-linejoin:round; stroke-width:4; stroke-opacity:1; fill:none" points="1197.87,1016.92 1197.87,998.022 "/>
<polyline clip-path="url(#clip500)" style="stroke:#000000; stroke-linecap:round; stroke-linejoin:round; stroke-width:4; stroke-opacity:1; fill:none" points="1514.73,1016.92 1514.73,998.022 "/>
<path clip-path="url(#clip500)" d="M217.23 1056.09 L246.906 1056.09 L246.906 1060.03 L217.23 1060.03 L217.23 1056.09 Z" fill="#000000" fill-rule="nonzero" fill-opacity="1" /><path clip-path="url(#clip500)" d="M261.026 1068.98 L277.346 1068.98 L277.346 1072.92 L255.401 1072.92 L255.401 1068.98 Q258.063 1066.23 262.647 1061.6 Q267.253 1056.95 268.434 1055.61 Q270.679 1053.08 271.559 1051.35 Q272.461 1049.59 272.461 1047.9 Q272.461 1045.14 270.517 1043.41 Q268.596 1041.67 265.494 1041.67 Q263.295 1041.67 260.841 1042.43 Q258.411 1043.2 255.633 1044.75 L255.633 1040.03 Q258.457 1038.89 260.911 1038.31 Q263.364 1037.73 265.401 1037.73 Q270.772 1037.73 273.966 1040.42 Q277.161 1043.11 277.161 1047.6 Q277.161 1049.73 276.35 1051.65 Q275.563 1053.54 273.457 1056.14 Q272.878 1056.81 269.776 1060.03 Q266.674 1063.22 261.026 1068.98 Z" fill="#000000" fill-rule="nonzero" fill-opacity="1" /><path clip-path="url(#clip500)" d="M533.906 1056.09 L563.582 1056.09 L563.582 1060.03 L533.906 1060.03 L533.906 1056.09 Z" fill="#000000" fill-rule="nonzero" fill-opacity="1" /><path clip-path="url(#clip500)" d="M574.485 1068.98 L582.124 1068.98 L582.124 1042.62 L573.813 1044.29 L573.813 1040.03 L582.077 1038.36 L586.753 1038.36 L586.753 1068.98 L594.392 1068.98 L594.392 1072.92 L574.485 1072.92 L574.485 1068.98 Z" fill="#000000" fill-rule="nonzero" fill-opacity="1" /><path clip-path="url(#clip500)" d="M881.01 1041.44 Q877.399 1041.44 875.57 1045 Q873.765 1048.54 873.765 1055.67 Q873.765 1062.78 875.57 1066.35 Q877.399 1069.89 881.01 1069.89 Q884.645 1069.89 886.45 1066.35 Q888.279 1062.78 888.279 1055.67 Q888.279 1048.54 886.45 1045 Q884.645 1041.44 881.01 1041.44 M881.01 1037.73 Q886.82 1037.73 889.876 1042.34 Q892.955 1046.92 892.955 1055.67 Q892.955 1064.4 889.876 1069.01 Q886.82 1073.59 881.01 1073.59 Q875.2 1073.59 872.121 1069.01 Q869.066 1064.4 869.066 1055.67 Q869.066 1046.92 872.121 1042.34 Q875.2 1037.73 881.01 1037.73 Z" fill="#000000" fill-rule="nonzero" fill-opacity="1" /><path clip-path="url(#clip500)" d="M1188.25 1068.98 L1195.89 1068.98 L1195.89 1042.62 L1187.58 1044.29 L1187.58 1040.03 L1195.85 1038.36 L1200.52 1038.36 L1200.52 1068.98 L1208.16 1068.98 L1208.16 1072.92 L1188.25 1072.92 L1188.25 1068.98 Z" fill="#000000" fill-rule="nonzero" fill-opacity="1" /><path clip-path="url(#clip500)" d="M1509.39 1068.98 L1525.7 1068.98 L1525.7 1072.92 L1503.76 1072.92 L1503.76 1068.98 Q1506.42 1066.23 1511.01 1061.6 Q1515.61 1056.95 1516.79 1055.61 Q1519.04 1053.08 1519.92 1051.35 Q1520.82 1049.59 1520.82 1047.9 Q1520.82 1045.14 1518.88 1043.41 Q1516.95 1041.67 1513.85 1041.67 Q1511.65 1041.67 1509.2 1042.43 Q1506.77 1043.2 1503.99 1044.75 L1503.99 1040.03 Q1506.82 1038.89 1509.27 1038.31 Q1511.72 1037.73 1513.76 1037.73 Q1519.13 1037.73 1522.33 1040.42 Q1525.52 1043.11 1525.52 1047.6 Q1525.52 1049.73 1524.71 1051.65 Q1523.92 1053.54 1521.82 1056.14 Q1521.24 1056.81 1518.14 1060.03 Q1515.03 1063.22 1509.39 1068.98 Z" fill="#000000" fill-rule="nonzero" fill-opacity="1" /><path clip-path="url(#clip500)" d="M895.185 1110.54 Q895.185 1112.34 894.058 1113.38 Q892.931 1114.37 891.643 1114.37 Q890.419 1114.37 889.775 1113.67 Q889.13 1112.96 889.13 1112.05 Q889.13 1110.83 890.032 1109.77 Q890.934 1108.71 892.287 1108.48 Q890.966 1107.64 889.002 1107.64 Q887.713 1107.64 886.586 1108.32 Q885.491 1109 884.815 1109.86 Q884.171 1110.73 883.591 1111.99 Q883.044 1113.21 882.818 1113.95 Q882.625 1114.66 882.464 1115.44 L880.209 1124.45 Q879.114 1128.74 879.114 1130.25 Q879.114 1132.12 880.016 1133.37 Q880.918 1134.6 882.722 1134.6 Q883.43 1134.6 884.235 1134.41 Q885.04 1134.18 886.071 1133.6 Q887.134 1132.99 888.068 1132.09 Q889.034 1131.15 889.968 1129.57 Q890.902 1128 891.514 1125.97 Q891.707 1125.26 892.351 1125.26 Q893.156 1125.26 893.156 1125.9 Q893.156 1126.45 892.705 1127.61 Q892.287 1128.74 891.353 1130.22 Q890.451 1131.67 889.259 1132.99 Q888.068 1134.28 886.296 1135.18 Q884.525 1136.08 882.593 1136.08 Q879.823 1136.08 877.987 1134.6 Q876.152 1133.12 875.475 1131.06 Q875.314 1131.35 875.089 1131.73 Q874.863 1132.12 874.187 1132.99 Q873.543 1133.83 872.802 1134.47 Q872.061 1135.08 870.902 1135.56 Q869.775 1136.08 868.551 1136.08 Q867.005 1136.08 865.62 1135.63 Q864.268 1135.18 863.301 1134.15 Q862.335 1133.12 862.335 1131.7 Q862.335 1130.12 863.398 1129.03 Q864.493 1127.9 865.974 1127.9 Q866.908 1127.9 867.649 1128.45 Q868.422 1128.99 868.422 1130.19 Q868.422 1131.51 867.52 1132.51 Q866.619 1133.5 865.33 1133.76 Q866.651 1134.6 868.615 1134.6 Q870.741 1134.6 872.416 1132.73 Q874.09 1130.86 874.895 1127.74 Q876.892 1120.24 877.665 1116.89 Q878.438 1113.5 878.438 1112.05 Q878.438 1110.7 878.084 1109.77 Q877.73 1108.83 877.118 1108.42 Q876.538 1107.96 875.99 1107.8 Q875.475 1107.64 874.895 1107.64 Q873.929 1107.64 872.834 1108.03 Q871.772 1108.42 870.483 1109.32 Q869.227 1110.19 868.036 1111.99 Q866.844 1113.79 866.039 1116.27 Q865.878 1117.01 865.169 1117.01 Q864.396 1116.98 864.396 1116.34 Q864.396 1115.79 864.815 1114.66 Q865.266 1113.5 866.168 1112.05 Q867.102 1110.61 868.293 1109.32 Q869.517 1108 871.288 1107.1 Q873.092 1106.19 875.024 1106.19 Q875.894 1106.19 876.731 1106.39 Q877.601 1106.55 878.631 1107.03 Q879.694 1107.51 880.628 1108.58 Q881.562 1109.64 882.142 1111.19 Q882.528 1110.44 883.044 1109.74 Q883.591 1109.03 884.428 1108.16 Q885.298 1107.26 886.49 1106.74 Q887.713 1106.19 889.066 1106.19 Q890.387 1106.19 891.675 1106.55 Q892.963 1106.87 894.058 1107.93 Q895.185 1108.96 895.185 1110.54 Z" fill="#000000" fill-rule="nonzero" fill-opacity="1" /><polyline clip-path="url(#clip503)" style="stroke:#000000; stroke-linecap:round; stroke-linejoin:round; stroke-width:2; stroke-opacity:0.1; fill:none" points="209.265,990.074 1552.76,990.074 "/>
<polyline clip-path="url(#clip503)" style="stroke:#000000; stroke-linecap:round; stroke-linejoin:round; stroke-width:2; stroke-opacity:0.1; fill:none" points="209.265,814.429 1552.76,814.429 "/>
<polyline clip-path="url(#clip503)" style="stroke:#000000; stroke-linecap:round; stroke-linejoin:round; stroke-width:2; stroke-opacity:0.1; fill:none" points="209.265,638.783 1552.76,638.783 "/>
<polyline clip-path="url(#clip503)" style="stroke:#000000; stroke-linecap:round; stroke-linejoin:round; stroke-width:2; stroke-opacity:0.1; fill:none" points="209.265,463.137 1552.76,463.137 "/>
<polyline clip-path="url(#clip503)" style="stroke:#000000; stroke-linecap:round; stroke-linejoin:round; stroke-width:2; stroke-opacity:0.1; fill:none" points="209.265,287.492 1552.76,287.492 "/>
<polyline clip-path="url(#clip503)" style="stroke:#000000; stroke-linecap:round; stroke-linejoin:round; stroke-width:2; stroke-opacity:0.1; fill:none" points="209.265,111.846 1552.76,111.846 "/>
<polyline clip-path="url(#clip500)" style="stroke:#000000; stroke-linecap:round; stroke-linejoin:round; stroke-width:4; stroke-opacity:1; fill:none" points="209.265,1016.92 209.265,47.2441 "/>
<polyline clip-path="url(#clip500)" style="stroke:#000000; stroke-linecap:round; stroke-linejoin:round; stroke-width:4; stroke-opacity:1; fill:none" points="209.265,990.074 228.162,990.074 "/>
<polyline clip-path="url(#clip500)" style="stroke:#000000; stroke-linecap:round; stroke-linejoin:round; stroke-width:4; stroke-opacity:1; fill:none" points="209.265,814.429 228.162,814.429 "/>
<polyline clip-path="url(#clip500)" style="stroke:#000000; stroke-linecap:round; stroke-linejoin:round; stroke-width:4; stroke-opacity:1; fill:none" points="209.265,638.783 228.162,638.783 "/>
<polyline clip-path="url(#clip500)" style="stroke:#000000; stroke-linecap:round; stroke-linejoin:round; stroke-width:4; stroke-opacity:1; fill:none" points="209.265,463.137 228.162,463.137 "/>
<polyline clip-path="url(#clip500)" style="stroke:#000000; stroke-linecap:round; stroke-linejoin:round; stroke-width:4; stroke-opacity:1; fill:none" points="209.265,287.492 228.162,287.492 "/>
<polyline clip-path="url(#clip500)" style="stroke:#000000; stroke-linecap:round; stroke-linejoin:round; stroke-width:4; stroke-opacity:1; fill:none" points="209.265,111.846 228.162,111.846 "/>
<path clip-path="url(#clip500)" d="M124.2 990.526 L153.876 990.526 L153.876 994.461 L124.2 994.461 L124.2 990.526 Z" fill="#000000" fill-rule="nonzero" fill-opacity="1" /><path clip-path="url(#clip500)" d="M178.135 988.72 Q181.492 989.438 183.367 991.706 Q185.265 993.975 185.265 997.308 Q185.265 1002.42 181.746 1005.22 Q178.228 1008.03 171.746 1008.03 Q169.57 1008.03 167.255 1007.59 Q164.964 1007.17 162.51 1006.31 L162.51 1001.8 Q164.455 1002.93 166.769 1003.51 Q169.084 1004.09 171.607 1004.09 Q176.005 1004.09 178.297 1002.35 Q180.612 1000.62 180.612 997.308 Q180.612 994.253 178.459 992.54 Q176.33 990.803 172.51 990.803 L168.482 990.803 L168.482 986.961 L172.695 986.961 Q176.144 986.961 177.973 985.595 Q179.802 984.206 179.802 981.614 Q179.802 978.952 177.904 977.54 Q176.029 976.104 172.51 976.104 Q170.589 976.104 168.39 976.521 Q166.191 976.938 163.552 977.817 L163.552 973.651 Q166.214 972.91 168.529 972.54 Q170.867 972.169 172.927 972.169 Q178.251 972.169 181.353 974.6 Q184.454 977.007 184.454 981.128 Q184.454 983.998 182.811 985.989 Q181.167 987.956 178.135 988.72 Z" fill="#000000" fill-rule="nonzero" fill-opacity="1" /><path clip-path="url(#clip500)" d="M125.149 814.88 L154.825 814.88 L154.825 818.815 L125.149 818.815 L125.149 814.88 Z" fill="#000000" fill-rule="nonzero" fill-opacity="1" /><path clip-path="url(#clip500)" d="M168.945 827.774 L185.265 827.774 L185.265 831.709 L163.32 831.709 L163.32 827.774 Q165.982 825.019 170.566 820.389 Q175.172 815.737 176.353 814.394 Q178.598 811.871 179.478 810.135 Q180.38 808.376 180.38 806.686 Q180.38 803.931 178.436 802.195 Q176.515 800.459 173.413 800.459 Q171.214 800.459 168.76 801.223 Q166.33 801.987 163.552 803.538 L163.552 798.815 Q166.376 797.681 168.83 797.102 Q171.283 796.524 173.32 796.524 Q178.691 796.524 181.885 799.209 Q185.079 801.894 185.079 806.385 Q185.079 808.514 184.269 810.436 Q183.482 812.334 181.376 814.926 Q180.797 815.598 177.695 818.815 Q174.593 822.01 168.945 827.774 Z" fill="#000000" fill-rule="nonzero" fill-opacity="1" /><path clip-path="url(#clip500)" d="M124.779 639.234 L154.455 639.234 L154.455 643.17 L124.779 643.17 L124.779 639.234 Z" fill="#000000" fill-rule="nonzero" fill-opacity="1" /><path clip-path="url(#clip500)" d="M165.357 652.128 L172.996 652.128 L172.996 625.762 L164.686 627.429 L164.686 623.17 L172.95 621.503 L177.626 621.503 L177.626 652.128 L185.265 652.128 L185.265 656.063 L165.357 656.063 L165.357 652.128 Z" fill="#000000" fill-rule="nonzero" fill-opacity="1" /><path clip-path="url(#clip500)" d="M173.32 448.936 Q169.709 448.936 167.88 452.501 Q166.075 456.043 166.075 463.172 Q166.075 470.279 167.88 473.843 Q169.709 477.385 173.32 477.385 Q176.955 477.385 178.76 473.843 Q180.589 470.279 180.589 463.172 Q180.589 456.043 178.76 452.501 Q176.955 448.936 173.32 448.936 M173.32 445.232 Q179.13 445.232 182.186 449.839 Q185.265 454.422 185.265 463.172 Q185.265 471.899 182.186 476.505 Q179.13 481.089 173.32 481.089 Q167.51 481.089 164.431 476.505 Q161.376 471.899 161.376 463.172 Q161.376 454.422 164.431 449.839 Q167.51 445.232 173.32 445.232 Z" fill="#000000" fill-rule="nonzero" fill-opacity="1" /><path clip-path="url(#clip500)" d="M165.357 300.837 L172.996 300.837 L172.996 274.471 L164.686 276.138 L164.686 271.879 L172.95 270.212 L177.626 270.212 L177.626 300.837 L185.265 300.837 L185.265 304.772 L165.357 304.772 L165.357 300.837 Z" fill="#000000" fill-rule="nonzero" fill-opacity="1" /><path clip-path="url(#clip500)" d="M168.945 125.191 L185.265 125.191 L185.265 129.126 L163.32 129.126 L163.32 125.191 Q165.982 122.436 170.566 117.807 Q175.172 113.154 176.353 111.812 Q178.598 109.288 179.478 107.552 Q180.38 105.793 180.38 104.103 Q180.38 101.349 178.436 99.6125 Q176.515 97.8764 173.413 97.8764 Q171.214 97.8764 168.76 98.6403 Q166.33 99.4042 163.552 100.955 L163.552 96.2329 Q166.376 95.0987 168.83 94.52 Q171.283 93.9413 173.32 93.9413 Q178.691 93.9413 181.885 96.6264 Q185.079 99.3116 185.079 103.802 Q185.079 105.932 184.269 107.853 Q183.482 109.751 181.376 112.344 Q180.797 113.015 177.695 116.233 Q174.593 119.427 168.945 125.191 Z" fill="#000000" fill-rule="nonzero" fill-opacity="1" /><path clip-path="url(#clip500)" d="M52.7883 517.643 Q53.2392 517.643 54.302 517.933 L79.4869 524.245 Q85.0908 525.63 89.0199 530.139 Q92.949 534.616 92.949 539.704 Q92.949 542.764 91.3065 544.728 Q89.6962 546.693 87.2164 546.693 Q85.0264 546.693 83.9636 545.534 Q82.933 544.374 82.933 542.989 Q82.933 542.538 83.0618 542.055 Q83.1906 541.572 83.7381 541.057 Q84.2856 540.542 85.2196 540.542 Q86.7333 540.542 87.9249 541.862 Q88.4724 542.506 88.6012 543.118 Q88.73 543.698 88.73 544.696 Q89.6318 544.31 90.2437 543.601 Q90.8556 542.893 91.0811 542.087 Q91.3387 541.282 91.4031 540.767 Q91.4997 540.22 91.4997 539.704 Q91.4997 535.582 87.3452 532.426 Q86.0891 531.492 84.8331 530.815 Q83.6093 530.107 82.0956 529.592 Q80.6141 529.076 79.809 528.851 Q79.0039 528.593 77.1681 528.142 Q80.1633 531.138 80.1633 534.809 Q80.1633 536.355 79.7446 537.74 Q79.3259 539.092 78.4564 540.284 Q77.5546 541.476 75.9765 542.184 Q74.3984 542.86 72.305 542.86 Q70.0828 542.86 67.0555 541.991 Q64.0281 541.121 58.4565 539.028 Q55.3325 537.901 53.8189 537.901 Q53.0781 537.901 52.6273 538.062 Q52.1442 538.223 51.9831 538.545 Q51.7899 538.867 51.7577 539.06 Q51.7255 539.221 51.7255 539.543 Q51.7255 541.443 53.6578 543.215 Q55.5902 544.986 59.9058 546.21 Q60.7109 546.467 60.9042 546.629 Q61.0974 546.79 61.0974 547.273 Q61.0652 548.078 60.4211 548.078 Q60.1634 548.078 59.165 547.788 Q58.1345 547.498 56.6208 546.822 Q55.0749 546.113 53.69 545.147 Q52.273 544.181 51.2746 542.667 Q50.2762 541.121 50.2762 539.35 Q50.2762 536.935 51.8543 535.453 Q53.4002 533.939 55.6868 533.939 Q56.6208 533.939 57.4581 534.197 Q58.2633 534.423 60.4211 535.26 Q69.1167 538.641 73.3678 538.641 Q74.3984 538.641 75.268 538.48 Q76.1053 538.287 76.9427 537.869 Q77.7478 537.45 78.2309 536.613 Q78.6818 535.743 78.6818 534.551 Q78.6818 533.038 77.9733 531.621 Q77.2325 530.171 76.2342 529.27 Q75.2358 528.336 74.3984 527.788 Q73.5289 527.208 73.078 527.08 L61.2262 524.117 L55.9445 522.796 Q53.0781 522.184 52.3696 521.894 Q51.6933 521.508 51.339 520.832 Q50.9848 520.155 50.9848 519.576 Q50.9848 518.77 51.4678 518.223 Q51.9509 517.643 52.7883 517.643 Z" fill="#000000" fill-rule="nonzero" fill-opacity="1" /><polyline clip-path="url(#clip503)" style="stroke:#009af9; stroke-linecap:round; stroke-linejoin:round; stroke-width:4; stroke-opacity:1; fill:none" points="247.288,989.476 313.996,910.356 380.703,834.875 447.411,778.66 514.118,741.55 580.826,714.039 647.534,685.983 714.241,651.809 780.949,613.733 847.656,579.564 914.364,555.585 981.072,541.811 1047.78,535.154 1114.49,534.455 1181.19,541.744 1247.9,558.093 1314.61,578.944 1381.32,598.838 1448.02,617.509 1514.73,637.393 "/>
<polyline clip-path="url(#clip503)" style="stroke:#e26f46; stroke-linecap:round; stroke-linejoin:round; stroke-width:4; stroke-opacity:1; fill:none" points="247.288,551.33 313.996,556.358 380.703,555.844 447.411,553.748 514.118,548.865 580.826,539.593 647.534,525.427 714.241,507.227 780.949,487.428 847.656,469.092 914.364,453.357 981.072,437.572 1047.78,417.297 1114.49,389.931 1181.19,358.246 1247.9,330.29 1314.61,311.963 1381.32,306.115 1448.02,317.544 1514.73,345.939 "/>
<polyline clip-path="url(#clip503)" style="stroke:#3da44d; stroke-linecap:round; stroke-linejoin:round; stroke-width:4; stroke-opacity:1; fill:none" points="247.288,202.924 313.996,276.248 380.703,331.361 447.411,361.812 514.118,373.319 580.826,375.922 647.534,375.867 714.241,374.637 780.949,370.387 847.656,359.551 914.364,338.725 981.072,306.118 1047.78,261.262 1114.49,205.295 1181.19,145.104 1247.9,96.1251 1314.61,74.6877 1381.32,91.489 1448.02,148.411 1514.73,228.612 "/>
<path clip-path="url(#clip500)" d="M1274.34 984.597 L1507.97 984.597 L1507.97 777.237 L1274.34 777.237  Z" fill="#ffffff" fill-rule="evenodd" fill-opacity="1"/>
<polyline clip-path="url(#clip500)" style="stroke:#000000; stroke-linecap:round; stroke-linejoin:round; stroke-width:4; stroke-opacity:1; fill:none" points="1274.34,984.597 1507.97,984.597 1507.97,777.237 1274.34,777.237 1274.34,984.597 "/>
<polyline clip-path="url(#clip500)" style="stroke:#009af9; stroke-linecap:round; stroke-linejoin:round; stroke-width:4; stroke-opacity:1; fill:none" points="1289.27,829.077 1378.84,829.077 "/>
<path clip-path="url(#clip500)" d="M1405.71 814.876 Q1402.1 814.876 1400.27 818.441 Q1398.46 821.982 1398.46 829.112 Q1398.46 836.218 1400.27 839.783 Q1402.1 843.325 1405.71 843.325 Q1409.34 843.325 1411.15 839.783 Q1412.98 836.218 1412.98 829.112 Q1412.98 821.982 1411.15 818.441 Q1409.34 814.876 1405.71 814.876 M1405.71 811.172 Q1411.52 811.172 1414.57 815.779 Q1417.65 820.362 1417.65 829.112 Q1417.65 837.839 1414.57 842.445 Q1411.52 847.029 1405.71 847.029 Q1399.9 847.029 1396.82 842.445 Q1393.76 837.839 1393.76 829.112 Q1393.76 820.362 1396.82 815.779 Q1399.9 811.172 1405.71 811.172 Z" fill="#000000" fill-rule="nonzero" fill-opacity="1" /><path clip-path="url(#clip500)" d="M1425.87 840.478 L1430.75 840.478 L1430.75 846.357 L1425.87 846.357 L1425.87 840.478 Z" fill="#000000" fill-rule="nonzero" fill-opacity="1" /><path clip-path="url(#clip500)" d="M1444.97 842.422 L1461.29 842.422 L1461.29 846.357 L1439.34 846.357 L1439.34 842.422 Q1442 839.668 1446.59 835.038 Q1451.19 830.385 1452.37 829.043 Q1454.62 826.519 1455.5 824.783 Q1456.4 823.024 1456.4 821.334 Q1456.4 818.58 1454.46 816.844 Q1452.54 815.107 1449.43 815.107 Q1447.24 815.107 1444.78 815.871 Q1442.35 816.635 1439.57 818.186 L1439.57 813.464 Q1442.4 812.33 1444.85 811.751 Q1447.3 811.172 1449.34 811.172 Q1454.71 811.172 1457.91 813.857 Q1461.1 816.543 1461.1 821.033 Q1461.1 823.163 1460.29 825.084 Q1459.5 826.982 1457.4 829.575 Q1456.82 830.246 1453.72 833.464 Q1450.61 836.658 1444.97 842.422 Z" fill="#000000" fill-rule="nonzero" fill-opacity="1" /><path clip-path="url(#clip500)" d="M1481.1 814.876 Q1477.49 814.876 1475.66 818.441 Q1473.86 821.982 1473.86 829.112 Q1473.86 836.218 1475.66 839.783 Q1477.49 843.325 1481.1 843.325 Q1484.74 843.325 1486.54 839.783 Q1488.37 836.218 1488.37 829.112 Q1488.37 821.982 1486.54 818.441 Q1484.74 814.876 1481.1 814.876 M1481.1 811.172 Q1486.91 811.172 1489.97 815.779 Q1493.05 820.362 1493.05 829.112 Q1493.05 837.839 1489.97 842.445 Q1486.91 847.029 1481.1 847.029 Q1475.29 847.029 1472.21 842.445 Q1469.16 837.839 1469.16 829.112 Q1469.16 820.362 1472.21 815.779 Q1475.29 811.172 1481.1 811.172 Z" fill="#000000" fill-rule="nonzero" fill-opacity="1" /><polyline clip-path="url(#clip500)" style="stroke:#e26f46; stroke-linecap:round; stroke-linejoin:round; stroke-width:4; stroke-opacity:1; fill:none" points="1289.27,880.917 1378.84,880.917 "/>
<path clip-path="url(#clip500)" d="M1405.71 866.716 Q1402.1 866.716 1400.27 870.281 Q1398.46 873.822 1398.46 880.952 Q1398.46 888.058 1400.27 891.623 Q1402.1 895.165 1405.71 895.165 Q1409.34 895.165 1411.15 891.623 Q1412.98 888.058 1412.98 880.952 Q1412.98 873.822 1411.15 870.281 Q1409.34 866.716 1405.71 866.716 M1405.71 863.012 Q1411.52 863.012 1414.57 867.619 Q1417.65 872.202 1417.65 880.952 Q1417.65 889.679 1414.57 894.285 Q1411.52 898.869 1405.71 898.869 Q1399.9 898.869 1396.82 894.285 Q1393.76 889.679 1393.76 880.952 Q1393.76 872.202 1396.82 867.619 Q1399.9 863.012 1405.71 863.012 Z" fill="#000000" fill-rule="nonzero" fill-opacity="1" /><path clip-path="url(#clip500)" d="M1425.87 892.318 L1430.75 892.318 L1430.75 898.197 L1425.87 898.197 L1425.87 892.318 Z" fill="#000000" fill-rule="nonzero" fill-opacity="1" /><path clip-path="url(#clip500)" d="M1440.99 863.637 L1459.34 863.637 L1459.34 867.572 L1445.27 867.572 L1445.27 876.045 Q1446.29 875.697 1447.3 875.535 Q1448.32 875.35 1449.34 875.35 Q1455.13 875.35 1458.51 878.521 Q1461.89 881.693 1461.89 887.109 Q1461.89 892.688 1458.42 895.79 Q1454.94 898.869 1448.62 898.869 Q1446.45 898.869 1444.18 898.498 Q1441.93 898.128 1439.53 897.387 L1439.53 892.688 Q1441.61 893.822 1443.83 894.378 Q1446.05 894.933 1448.53 894.933 Q1452.54 894.933 1454.87 892.827 Q1457.21 890.721 1457.21 887.109 Q1457.21 883.498 1454.87 881.392 Q1452.54 879.285 1448.53 879.285 Q1446.66 879.285 1444.78 879.702 Q1442.93 880.119 1440.99 880.998 L1440.99 863.637 Z" fill="#000000" fill-rule="nonzero" fill-opacity="1" /><path clip-path="url(#clip500)" d="M1481.1 866.716 Q1477.49 866.716 1475.66 870.281 Q1473.86 873.822 1473.86 880.952 Q1473.86 888.058 1475.66 891.623 Q1477.49 895.165 1481.1 895.165 Q1484.74 895.165 1486.54 891.623 Q1488.37 888.058 1488.37 880.952 Q1488.37 873.822 1486.54 870.281 Q1484.74 866.716 1481.1 866.716 M1481.1 863.012 Q1486.91 863.012 1489.97 867.619 Q1493.05 872.202 1493.05 880.952 Q1493.05 889.679 1489.97 894.285 Q1486.91 898.869 1481.1 898.869 Q1475.29 898.869 1472.21 894.285 Q1469.16 889.679 1469.16 880.952 Q1469.16 872.202 1472.21 867.619 Q1475.29 863.012 1481.1 863.012 Z" fill="#000000" fill-rule="nonzero" fill-opacity="1" /><polyline clip-path="url(#clip500)" style="stroke:#3da44d; stroke-linecap:round; stroke-linejoin:round; stroke-width:4; stroke-opacity:1; fill:none" points="1289.27,932.757 1378.84,932.757 "/>
<path clip-path="url(#clip500)" d="M1405.71 918.556 Q1402.1 918.556 1400.27 922.121 Q1398.46 925.662 1398.46 932.792 Q1398.46 939.898 1400.27 943.463 Q1402.1 947.005 1405.71 947.005 Q1409.34 947.005 1411.15 943.463 Q1412.98 939.898 1412.98 932.792 Q1412.98 925.662 1411.15 922.121 Q1409.34 918.556 1405.71 918.556 M1405.71 914.852 Q1411.52 914.852 1414.57 919.459 Q1417.65 924.042 1417.65 932.792 Q1417.65 941.519 1414.57 946.125 Q1411.52 950.709 1405.71 950.709 Q1399.9 950.709 1396.82 946.125 Q1393.76 941.519 1393.76 932.792 Q1393.76 924.042 1396.82 919.459 Q1399.9 914.852 1405.71 914.852 Z" fill="#000000" fill-rule="nonzero" fill-opacity="1" /><path clip-path="url(#clip500)" d="M1425.87 944.158 L1430.75 944.158 L1430.75 950.037 L1425.87 950.037 L1425.87 944.158 Z" fill="#000000" fill-rule="nonzero" fill-opacity="1" /><path clip-path="url(#clip500)" d="M1450.94 933.625 Q1447.61 933.625 1445.68 935.408 Q1443.79 937.19 1443.79 940.315 Q1443.79 943.44 1445.68 945.223 Q1447.61 947.005 1450.94 947.005 Q1454.27 947.005 1456.19 945.223 Q1458.11 943.417 1458.11 940.315 Q1458.11 937.19 1456.19 935.408 Q1454.3 933.625 1450.94 933.625 M1446.26 931.635 Q1443.25 930.894 1441.56 928.834 Q1439.9 926.774 1439.9 923.811 Q1439.9 919.667 1442.84 917.26 Q1445.8 914.852 1450.94 914.852 Q1456.1 914.852 1459.04 917.26 Q1461.98 919.667 1461.98 923.811 Q1461.98 926.774 1460.29 928.834 Q1458.62 930.894 1455.64 931.635 Q1459.02 932.422 1460.89 934.713 Q1462.79 937.005 1462.79 940.315 Q1462.79 945.338 1459.71 948.023 Q1456.66 950.709 1450.94 950.709 Q1445.22 950.709 1442.14 948.023 Q1439.09 945.338 1439.09 940.315 Q1439.09 937.005 1440.99 934.713 Q1442.88 932.422 1446.26 931.635 M1444.55 924.25 Q1444.55 926.936 1446.22 928.44 Q1447.91 929.945 1450.94 929.945 Q1453.95 929.945 1455.64 928.44 Q1457.35 926.936 1457.35 924.25 Q1457.35 921.565 1455.64 920.061 Q1453.95 918.556 1450.94 918.556 Q1447.91 918.556 1446.22 920.061 Q1444.55 921.565 1444.55 924.25 Z" fill="#000000" fill-rule="nonzero" fill-opacity="1" /><path clip-path="url(#clip500)" d="M1481.1 918.556 Q1477.49 918.556 1475.66 922.121 Q1473.86 925.662 1473.86 932.792 Q1473.86 939.898 1475.66 943.463 Q1477.49 947.005 1481.1 947.005 Q1484.74 947.005 1486.54 943.463 Q1488.37 939.898 1488.37 932.792 Q1488.37 925.662 1486.54 922.121 Q1484.74 918.556 1481.1 918.556 M1481.1 914.852 Q1486.91 914.852 1489.97 919.459 Q1493.05 924.042 1493.05 932.792 Q1493.05 941.519 1489.97 946.125 Q1486.91 950.709 1481.1 950.709 Q1475.29 950.709 1472.21 946.125 Q1469.16 941.519 1469.16 932.792 Q1469.16 924.042 1472.21 919.459 Q1475.29 914.852 1481.1 914.852 Z" fill="#000000" fill-rule="nonzero" fill-opacity="1" /></svg>
