<?xml version="1.0" encoding="utf-8"?>
<svg xmlns="http://www.w3.org/2000/svg" xmlns:xlink="http://www.w3.org/1999/xlink" width="400" height="300" viewBox="0 0 1600 1200">
<defs>
  <clipPath id="clip530">
    <rect x="0" y="0" width="1600" height="1200"/>
  </clipPath>
</defs>
<path clip-path="url(#clip530)" d="M0 1200 L1600 1200 L1600 0 L0 0  Z" fill="#ffffff" fill-rule="evenodd" fill-opacity="1"/>
<defs>
  <clipPath id="clip531">
    <rect x="320" y="0" width="1121" height="1121"/>
  </clipPath>
</defs>
<defs>
  <clipPath id="clip532">
    <rect x="209" y="47" width="1344" height="971"/>
  </clipPath>
</defs>
<path clip-path="url(#clip530)" d="M208.686 1016.92 L1552.76 1016.92 L1552.76 47.2441 L208.686 47.2441  Z" fill="#ffffff" fill-rule="evenodd" fill-opacity="1"/>
<defs>
  <clipPath id="clip533">
    <rect x="208" y="47" width="1345" height="971"/>
  </clipPath>
</defs>
<polyline clip-path="url(#clip533)" style="stroke:#000000; stroke-linecap:round; stroke-linejoin:round; stroke-width:2; stroke-opacity:0.1; fill:none" points="246.726,1016.92 246.726,47.2441 "/>
<polyline clip-path="url(#clip533)" style="stroke:#000000; stroke-linecap:round; stroke-linejoin:round; stroke-width:2; stroke-opacity:0.1; fill:none" points="563.723,1016.92 563.723,47.2441 "/>
<polyline clip-path="url(#clip533)" style="stroke:#000000; stroke-linecap:round; stroke-linejoin:round; stroke-width:2; stroke-opacity:0.1; fill:none" points="880.721,1016.92 880.721,47.2441 "/>
<polyline clip-path="url(#clip533)" style="stroke:#000000; stroke-linecap:round; stroke-linejoin:round; stroke-width:2; stroke-opacity:0.1; fill:none" points="1197.72,1016.92 1197.72,47.2441 "/>
<polyline clip-path="url(#clip533)" style="stroke:#000000; stroke-linecap:round; stroke-linejoin:round; stroke-width:2; stroke-opacity:0.1; fill:none" points="1514.72,1016.92 1514.72,47.2441 "/>
<polyline clip-path="url(#clip530)" style="stroke:#000000; stroke-linecap:round; stroke-linejoin:round; stroke-width:4; stroke-opacity:1; fill:none" points="208.686,1016.92 1552.76,1016.92 "/>
<polyline clip-path="url(#clip530)" style="stroke:#000000; stroke-linecap:round; stroke-linejoin:round; stroke-width:4; stroke-opacity:1; fill:none" points="246.726,1016.92 246.726,998.022 "/>
<polyline clip-path="url(#clip530)" style="stroke:#000000; stroke-linecap:round; stroke-linejoin:round; stroke-width:4; stroke-opacity:1; fill:none" points="563.723,1016.92 563.723,998.022 "/>
<polyline clip-path="url(#clip530)" style="stroke:#000000; stroke-linecap:round; stroke-linejoin:round; stroke-width:4; stroke-opacity:1; fill:none" points="880.721,1016.92 880.721,998.022 "/>
<polyline clip-path="url(#clip530)" style="stroke:#000000; stroke-linecap:round; stroke-linejoin:round; stroke-width:4; stroke-opacity:1; fill:none" points="1197.72,1016.92 1197.72,998.022 "/>
<polyline clip-path="url(#clip530)" style="stroke:#000000; stroke-linecap:round; stroke-linejoin:round; stroke-width:4; stroke-opacity:1; fill:none" points="1514.72,1016.92 1514.72,998.022 "/>
<path clip-path="url(#clip530)" d="M216.668 1056.09 L246.344 1056.09 L246.344 1060.03 L216.668 1060.03 L216.668 1056.09 Z" fill="#000000" fill-rule="nonzero" fill-opacity="1" /><path clip-path="url(#clip530)" d="M260.464 1068.98 L276.783 1068.98 L276.783 1072.92 L254.839 1072.92 L254.839 1068.98 Q257.501 1066.23 262.084 1061.6 Q266.691 1056.95 267.871 1055.61 Q270.117 1053.08 270.996 1051.35 Q271.899 1049.59 271.899 1047.9 Q271.899 1045.14 269.955 1043.41 Q268.033 1041.67 264.932 1041.67 Q262.733 1041.67 260.279 1042.43 Q257.848 1043.2 255.071 1044.75 L255.071 1040.03 Q257.895 1038.89 260.348 1038.31 Q262.802 1037.73 264.839 1037.73 Q270.209 1037.73 273.404 1040.42 Q276.598 1043.11 276.598 1047.6 Q276.598 1049.73 275.788 1051.65 Q275.001 1053.54 272.895 1056.14 Q272.316 1056.81 269.214 1060.03 Q266.112 1063.22 260.464 1068.98 Z" fill="#000000" fill-rule="nonzero" fill-opacity="1" /><path clip-path="url(#clip530)" d="M533.48 1056.09 L563.156 1056.09 L563.156 1060.03 L533.48 1060.03 L533.48 1056.09 Z" fill="#000000" fill-rule="nonzero" fill-opacity="1" /><path clip-path="url(#clip530)" d="M574.059 1068.98 L581.698 1068.98 L581.698 1042.62 L573.388 1044.29 L573.388 1040.03 L581.651 1038.36 L586.327 1038.36 L586.327 1068.98 L593.966 1068.98 L593.966 1072.92 L574.059 1072.92 L574.059 1068.98 Z" fill="#000000" fill-rule="nonzero" fill-opacity="1" /><path clip-path="url(#clip530)" d="M880.721 1041.44 Q877.11 1041.44 875.281 1045 Q873.476 1048.54 873.476 1055.67 Q873.476 1062.78 875.281 1066.35 Q877.11 1069.89 880.721 1069.89 Q884.355 1069.89 886.161 1066.35 Q887.989 1062.78 887.989 1055.67 Q887.989 1048.54 886.161 1045 Q884.355 1041.44 880.721 1041.44 M880.721 1037.73 Q886.531 1037.73 889.587 1042.34 Q892.665 1046.92 892.665 1055.67 Q892.665 1064.4 889.587 1069.01 Q886.531 1073.59 880.721 1073.59 Q874.911 1073.59 871.832 1069.01 Q868.777 1064.4 868.777 1055.67 Q868.777 1046.92 871.832 1042.34 Q874.911 1037.73 880.721 1037.73 Z" fill="#000000" fill-rule="nonzero" fill-opacity="1" /><path clip-path="url(#clip530)" d="M1188.1 1068.98 L1195.74 1068.98 L1195.74 1042.62 L1187.43 1044.29 L1187.43 1040.03 L1195.69 1038.36 L1200.37 1038.36 L1200.37 1068.98 L1208.01 1068.98 L1208.01 1072.92 L1188.1 1072.92 L1188.1 1068.98 Z" fill="#000000" fill-rule="nonzero" fill-opacity="1" /><path clip-path="url(#clip530)" d="M1509.37 1068.98 L1525.69 1068.98 L1525.69 1072.92 L1503.74 1072.92 L1503.74 1068.98 Q1506.41 1066.23 1510.99 1061.6 Q1515.6 1056.95 1516.78 1055.61 Q1519.02 1053.08 1519.9 1051.35 Q1520.8 1049.59 1520.8 1047.9 Q1520.8 1045.14 1518.86 1043.41 Q1516.94 1041.67 1513.84 1041.67 Q1511.64 1041.67 1509.18 1042.43 Q1506.75 1043.2 1503.98 1044.75 L1503.98 1040.03 Q1506.8 1038.89 1509.25 1038.31 Q1511.71 1037.73 1513.74 1037.73 Q1519.11 1037.73 1522.31 1040.42 Q1525.5 1043.11 1525.5 1047.6 Q1525.5 1049.73 1524.69 1051.65 Q1523.91 1053.54 1521.8 1056.14 Q1521.22 1056.81 1518.12 1060.03 Q1515.02 1063.22 1509.37 1068.98 Z" fill="#000000" fill-rule="nonzero" fill-opacity="1" /><path clip-path="url(#clip530)" d="M894.896 1110.54 Q894.896 1112.34 893.769 1113.38 Q892.641 1114.37 891.353 1114.37 Q890.129 1114.37 889.485 1113.67 Q888.841 1112.96 888.841 1112.05 Q888.841 1110.83 889.743 1109.77 Q890.645 1108.71 891.997 1108.48 Q890.677 1107.64 888.712 1107.64 Q887.424 1107.64 886.297 1108.32 Q885.202 1109 884.526 1109.86 Q883.881 1110.73 883.302 1111.99 Q882.754 1113.21 882.529 1113.95 Q882.336 1114.66 882.175 1115.44 L879.92 1124.45 Q878.825 1128.74 878.825 1130.25 Q878.825 1132.12 879.727 1133.37 Q880.629 1134.6 882.432 1134.6 Q883.141 1134.6 883.946 1134.41 Q884.751 1134.18 885.782 1133.6 Q886.844 1132.99 887.778 1132.09 Q888.745 1131.15 889.678 1129.57 Q890.612 1128 891.224 1125.97 Q891.418 1125.26 892.062 1125.26 Q892.867 1125.26 892.867 1125.9 Q892.867 1126.45 892.416 1127.61 Q891.997 1128.74 891.063 1130.22 Q890.162 1131.67 888.97 1132.99 Q887.778 1134.28 886.007 1135.18 Q884.236 1136.08 882.303 1136.08 Q879.534 1136.08 877.698 1134.6 Q875.862 1133.12 875.186 1131.06 Q875.025 1131.35 874.799 1131.73 Q874.574 1132.12 873.898 1132.99 Q873.253 1133.83 872.513 1134.47 Q871.772 1135.08 870.613 1135.56 Q869.485 1136.08 868.262 1136.08 Q866.716 1136.08 865.331 1135.63 Q863.978 1135.18 863.012 1134.15 Q862.046 1133.12 862.046 1131.7 Q862.046 1130.12 863.109 1129.03 Q864.204 1127.9 865.685 1127.9 Q866.619 1127.9 867.36 1128.45 Q868.133 1128.99 868.133 1130.19 Q868.133 1131.51 867.231 1132.51 Q866.329 1133.5 865.041 1133.76 Q866.361 1134.6 868.326 1134.6 Q870.452 1134.6 872.126 1132.73 Q873.801 1130.86 874.606 1127.74 Q876.603 1120.24 877.376 1116.89 Q878.149 1113.5 878.149 1112.05 Q878.149 1110.7 877.795 1109.77 Q877.44 1108.83 876.828 1108.42 Q876.249 1107.96 875.701 1107.8 Q875.186 1107.64 874.606 1107.64 Q873.64 1107.64 872.545 1108.03 Q871.482 1108.42 870.194 1109.32 Q868.938 1110.19 867.746 1111.99 Q866.555 1113.79 865.75 1116.27 Q865.588 1117.01 864.88 1117.01 Q864.107 1116.98 864.107 1116.34 Q864.107 1115.79 864.526 1114.66 Q864.977 1113.5 865.878 1112.05 Q866.812 1110.61 868.004 1109.32 Q869.228 1108 870.999 1107.1 Q872.803 1106.19 874.735 1106.19 Q875.605 1106.19 876.442 1106.39 Q877.311 1106.55 878.342 1107.03 Q879.405 1107.51 880.339 1108.58 Q881.273 1109.64 881.852 1111.19 Q882.239 1110.44 882.754 1109.74 Q883.302 1109.03 884.139 1108.16 Q885.009 1107.26 886.2 1106.74 Q887.424 1106.19 888.777 1106.19 Q890.097 1106.19 891.385 1106.55 Q892.674 1106.87 893.769 1107.93 Q894.896 1108.96 894.896 1110.54 Z" fill="#000000" fill-rule="nonzero" fill-opacity="1" /><polyline clip-path="url(#clip533)" style="stroke:#000000; stroke-linecap:round; stroke-linejoin:round; stroke-width:2; stroke-opacity:0.1; fill:none" points="208.686,915.257 1552.76,915.257 "/>
<polyline clip-path="url(#clip533)" style="stroke:#000000; stroke-linecap:round; stroke-linejoin:round; stroke-width:2; stroke-opacity:0.1; fill:none" points="208.686,740.626 1552.76,740.626 "/>
<polyline clip-path="url(#clip533)" style="stroke:#000000; stroke-linecap:round; stroke-linejoin:round; stroke-width:2; stroke-opacity:0.1; fill:none" points="208.686,565.995 1552.76,565.995 "/>
<polyline clip-path="url(#clip533)" style="stroke:#000000; stroke-linecap:round; stroke-linejoin:round; stroke-width:2; stroke-opacity:0.1; fill:none" points="208.686,391.365 1552.76,391.365 "/>
<polyline clip-path="url(#clip533)" style="stroke:#000000; stroke-linecap:round; stroke-linejoin:round; stroke-width:2; stroke-opacity:0.1; fill:none" points="208.686,216.734 1552.76,216.734 "/>
<polyline clip-path="url(#clip530)" style="stroke:#000000; stroke-linecap:round; stroke-linejoin:round; stroke-width:4; stroke-opacity:1; fill:none" points="208.686,1016.92 208.686,47.2441 "/>
<polyline clip-path="url(#clip530)" style="stroke:#000000; stroke-linecap:round; stroke-linejoin:round; stroke-width:4; stroke-opacity:1; fill:none" points="208.686,915.257 227.584,915.257 "/>
<polyline clip-path="url(#clip530)" style="stroke:#000000; stroke-linecap:round; stroke-linejoin:round; stroke-width:4; stroke-opacity:1; fill:none" points="208.686,740.626 227.584,740.626 "/>
<polyline clip-path="url(#clip530)" style="stroke:#000000; stroke-linecap:round; stroke-linejoin:round; stroke-width:4; stroke-opacity:1; fill:none" points="208.686,565.995 227.584,565.995 "/>
<polyline clip-path="url(#clip530)" style="stroke:#000000; stroke-linecap:round; stroke-linejoin:round; stroke-width:4; stroke-opacity:1; fill:none" points="208.686,391.365 227.584,391.365 "/>
<polyline clip-path="url(#clip530)" style="stroke:#000000; stroke-linecap:round; stroke-linejoin:round; stroke-width:4; stroke-opacity:1; fill:none" points="208.686,216.734 227.584,216.734 "/>
<path clip-path="url(#clip530)" d="M124.571 915.708 L154.246 915.708 L154.246 919.643 L124.571 919.643 L124.571 915.708 Z" fill="#000000" fill-rule="nonzero" fill-opacity="1" /><path clip-path="url(#clip530)" d="M168.367 928.602 L184.686 928.602 L184.686 932.537 L162.742 932.537 L162.742 928.602 Q165.404 925.847 169.987 921.217 Q174.593 916.565 175.774 915.222 Q178.019 912.699 178.899 910.963 Q179.802 909.204 179.802 907.514 Q179.802 904.759 177.857 903.023 Q175.936 901.287 172.834 901.287 Q170.635 901.287 168.181 902.051 Q165.751 902.815 162.973 904.366 L162.973 899.643 Q165.797 898.509 168.251 897.931 Q170.705 897.352 172.742 897.352 Q178.112 897.352 181.306 900.037 Q184.501 902.722 184.501 907.213 Q184.501 909.342 183.691 911.264 Q182.904 913.162 180.797 915.755 Q180.218 916.426 177.117 919.643 Q174.015 922.838 168.367 928.602 Z" fill="#000000" fill-rule="nonzero" fill-opacity="1" /><path clip-path="url(#clip530)" d="M124.2 741.077 L153.876 741.077 L153.876 745.013 L124.2 745.013 L124.2 741.077 Z" fill="#000000" fill-rule="nonzero" fill-opacity="1" /><path clip-path="url(#clip530)" d="M164.779 753.971 L172.417 753.971 L172.417 727.605 L164.107 729.272 L164.107 725.013 L172.371 723.346 L177.047 723.346 L177.047 753.971 L184.686 753.971 L184.686 757.906 L164.779 757.906 L164.779 753.971 Z" fill="#000000" fill-rule="nonzero" fill-opacity="1" /><path clip-path="url(#clip530)" d="M172.742 551.794 Q169.13 551.794 167.302 555.359 Q165.496 558.9 165.496 566.03 Q165.496 573.136 167.302 576.701 Q169.13 580.243 172.742 580.243 Q176.376 580.243 178.181 576.701 Q180.01 573.136 180.01 566.03 Q180.01 558.9 178.181 555.359 Q176.376 551.794 172.742 551.794 M172.742 548.09 Q178.552 548.09 181.607 552.697 Q184.686 557.28 184.686 566.03 Q184.686 574.757 181.607 579.363 Q178.552 583.947 172.742 583.947 Q166.931 583.947 163.853 579.363 Q160.797 574.757 160.797 566.03 Q160.797 557.28 163.853 552.697 Q166.931 548.09 172.742 548.09 Z" fill="#000000" fill-rule="nonzero" fill-opacity="1" /><path clip-path="url(#clip530)" d="M164.779 404.709 L172.417 404.709 L172.417 378.344 L164.107 380.01 L164.107 375.751 L172.371 374.085 L177.047 374.085 L177.047 404.709 L184.686 404.709 L184.686 408.645 L164.779 408.645 L164.779 404.709 Z" fill="#000000" fill-rule="nonzero" fill-opacity="1" /><path clip-path="url(#clip530)" d="M168.367 230.079 L184.686 230.079 L184.686 234.014 L162.742 234.014 L162.742 230.079 Q165.404 227.324 169.987 222.694 Q174.593 218.042 175.774 216.699 Q178.019 214.176 178.899 212.44 Q179.802 210.681 179.802 208.991 Q179.802 206.236 177.857 204.5 Q175.936 202.764 172.834 202.764 Q170.635 202.764 168.181 203.528 Q165.751 204.292 162.973 205.843 L162.973 201.12 Q165.797 199.986 168.251 199.407 Q170.705 198.829 172.742 198.829 Q178.112 198.829 181.306 201.514 Q184.501 204.199 184.501 208.69 Q184.501 210.819 183.691 212.741 Q182.904 214.639 180.797 217.231 Q180.218 217.903 177.117 221.12 Q174.015 224.315 168.367 230.079 Z" fill="#000000" fill-rule="nonzero" fill-opacity="1" /><path clip-path="url(#clip530)" d="M52.7883 517.643 Q53.2392 517.643 54.302 517.933 L79.4869 524.245 Q85.0908 525.63 89.0199 530.139 Q92.949 534.616 92.949 539.704 Q92.949 542.764 91.3065 544.728 Q89.6962 546.693 87.2164 546.693 Q85.0264 546.693 83.9636 545.534 Q82.933 544.374 82.933 542.989 Q82.933 542.538 83.0618 542.055 Q83.1906 541.572 83.7381 541.057 Q84.2856 540.542 85.2196 540.542 Q86.7333 540.542 87.9249 541.862 Q88.4724 542.506 88.6012 543.118 Q88.73 543.698 88.73 544.696 Q89.6318 544.31 90.2437 543.601 Q90.8556 542.893 91.0811 542.087 Q91.3387 541.282 91.4031 540.767 Q91.4997 540.22 91.4997 539.704 Q91.4997 535.582 87.3452 532.426 Q86.0891 531.492 84.8331 530.815 Q83.6093 530.107 82.0956 529.592 Q80.6141 529.076 79.809 528.851 Q79.0039 528.593 77.1681 528.142 Q80.1633 531.138 80.1633 534.809 Q80.1633 536.355 79.7446 537.74 Q79.3259 539.092 78.4564 540.284 Q77.5546 541.476 75.9765 542.184 Q74.3984 542.86 72.305 542.86 Q70.0828 542.86 67.0555 541.991 Q64.0281 541.121 58.4565 539.028 Q55.3325 537.901 53.8189 537.901 Q53.0781 537.901 52.6273 538.062 Q52.1442 538.223 51.9831 538.545 Q51.7899 538.867 51.7577 539.06 Q51.7255 539.221 51.7255 539.543 Q51.7255 541.443 53.6578 543.215 Q55.5902 544.986 59.9058 546.21 Q60.7109 546.467 60.9042 546.629 Q61.0974 546.79 61.0974 547.273 Q61.0652 548.078 60.4211 548.078 Q60.1634 548.078 59.165 547.788 Q58.1345 547.498 56.6208 546.822 Q55.0749 546.113 53.69 545.147 Q52.273 544.181 51.2746 542.667 Q50.2762 541.121 50.2762 539.35 Q50.2762 536.935 51.8543 535.453 Q53.4002 533.939 55.6868 533.939 Q56.6208 533.939 57.4581 534.197 Q58.2633 534.423 60.4211 535.26 Q69.1167 538.641 73.3678 538.641 Q74.3984 538.641 75.268 538.48 Q76.1053 538.287 76.9427 537.869 Q77.7478 537.45 78.2309 536.613 Q78.6818 535.743 78.6818 534.551 Q78.6818 533.038 77.9733 531.621 Q77.2325 530.171 76.2342 529.27 Q75.2358 528.336 74.3984 527.788 Q73.5289 527.208 73.078 527.08 L61.2262 524.117 L55.9445 522.796 Q53.0781 522.184 52.3696 521.894 Q51.6933 521.508 51.339 520.832 Q50.9848 520.155 50.9848 519.576 Q50.9848 518.77 51.4678 518.223 Q51.9509 517.643 52.7883 517.643 Z" fill="#000000" fill-rule="nonzero" fill-opacity="1" /><polyline clip-path="url(#clip533)" style="stroke:#009af9; stroke-linecap:round; stroke-linejoin:round; stroke-width:4; stroke-opacity:1; fill:none" points="246.726,989.476 313.462,953.151 380.198,915.032 446.935,876.646 513.671,839.401 580.407,804.482 647.144,772.804 713.88,745.011 780.616,721.512 847.353,702.518 914.089,688.106 980.825,678.266 1047.56,672.953 1114.3,672.131 1181.03,675.807 1247.77,684.058 1314.51,697.034 1381.24,714.947 1447.98,738.03 1514.72,766.473 "/>
<polyline clip-path="url(#clip533)" style="stroke:#e26f46; stroke-linecap:round; stroke-linejoin:round; stroke-width:4; stroke-opacity:1; fill:none" points="246.726,732.512 313.462,711.045 380.198,691.181 446.935,672.506 513.671,654.621 580.407,637.164 647.144,619.827 713.88,602.356 780.616,584.552 847.353,566.27 914.089,547.422 980.825,527.987 1047.56,508.035 1114.3,487.754 1181.03,467.485 1247.77,447.761 1314.51,429.314 1381.24,413.07 1447.98,400.077 1514.72,391.384 "/>
<polyline clip-path="url(#clip533)" style="stroke:#3da44d; stroke-linecap:round; stroke-linejoin:round; stroke-width:4; stroke-opacity:1; fill:none" points="246.726,457.79 313.462,460.119 380.198,463.076 446.935,465.921 513.671,467.823 580.407,467.921 647.144,465.386 713.88,459.472 780.616,449.562 847.353,435.202 914.089,416.12 980.825,392.231 1047.56,363.639 1114.3,330.629 1181.03,293.664 1247.77,253.364 1314.51,210.488 1381.24,165.878 1447.98,120.374 1514.72,74.6877 "/>
<path clip-path="url(#clip530)" d="M253.488 286.927 L487.177 286.927 L487.177 79.5666 L253.488 79.5666  Z" fill="#ffffff" fill-rule="evenodd" fill-opacity="1"/>
<polyline clip-path="url(#clip530)" style="stroke:#000000; stroke-linecap:round; stroke-linejoin:round; stroke-width:4; stroke-opacity:1; fill:none" points="253.488,286.927 487.177,286.927 487.177,79.5666 253.488,79.5666 253.488,286.927 "/>
<polyline clip-path="url(#clip530)" style="stroke:#009af9; stroke-linecap:round; stroke-linejoin:round; stroke-width:4; stroke-opacity:1; fill:none" points="268.422,131.407 358.027,131.407 "/>
<path clip-path="url(#clip530)" d="M384.906 117.205 Q381.294 117.205 379.466 120.77 Q377.66 124.312 377.66 131.441 Q377.66 138.548 379.466 142.113 Q381.294 145.654 384.906 145.654 Q388.54 145.654 390.345 142.113 Q392.174 138.548 392.174 131.441 Q392.174 124.312 390.345 120.77 Q388.54 117.205 384.906 117.205 M384.906 113.502 Q390.716 113.502 393.771 118.108 Q396.85 122.691 396.85 131.441 Q396.85 140.168 393.771 144.775 Q390.716 149.358 384.906 149.358 Q379.095 149.358 376.017 144.775 Q372.961 140.168 372.961 131.441 Q372.961 122.691 376.017 118.108 Q379.095 113.502 384.906 113.502 Z" fill="#000000" fill-rule="nonzero" fill-opacity="1" /><path clip-path="url(#clip530)" d="M405.067 142.807 L409.952 142.807 L409.952 148.687 L405.067 148.687 L405.067 142.807 Z" fill="#000000" fill-rule="nonzero" fill-opacity="1" /><path clip-path="url(#clip530)" d="M424.165 144.751 L440.484 144.751 L440.484 148.687 L418.54 148.687 L418.54 144.751 Q421.202 141.997 425.785 137.367 Q430.391 132.714 431.572 131.372 Q433.817 128.849 434.697 127.113 Q435.6 125.353 435.6 123.664 Q435.6 120.909 433.655 119.173 Q431.734 117.437 428.632 117.437 Q426.433 117.437 423.979 118.201 Q421.549 118.965 418.771 120.515 L418.771 115.793 Q421.595 114.659 424.049 114.08 Q426.503 113.502 428.54 113.502 Q433.91 113.502 437.104 116.187 Q440.299 118.872 440.299 123.363 Q440.299 125.492 439.489 127.414 Q438.702 129.312 436.595 131.904 Q436.016 132.576 432.915 135.793 Q429.813 138.988 424.165 144.751 Z" fill="#000000" fill-rule="nonzero" fill-opacity="1" /><path clip-path="url(#clip530)" d="M460.299 117.205 Q456.688 117.205 454.859 120.77 Q453.053 124.312 453.053 131.441 Q453.053 138.548 454.859 142.113 Q456.688 145.654 460.299 145.654 Q463.933 145.654 465.738 142.113 Q467.567 138.548 467.567 131.441 Q467.567 124.312 465.738 120.77 Q463.933 117.205 460.299 117.205 M460.299 113.502 Q466.109 113.502 469.164 118.108 Q472.243 122.691 472.243 131.441 Q472.243 140.168 469.164 144.775 Q466.109 149.358 460.299 149.358 Q454.489 149.358 451.41 144.775 Q448.354 140.168 448.354 131.441 Q448.354 122.691 451.41 118.108 Q454.489 113.502 460.299 113.502 Z" fill="#000000" fill-rule="nonzero" fill-opacity="1" /><polyline clip-path="url(#clip530)" style="stroke:#e26f46; stroke-linecap:round; stroke-linejoin:round; stroke-width:4; stroke-opacity:1; fill:none" points="268.422,183.247 358.027,183.247 "/>
<path clip-path="url(#clip530)" d="M384.906 169.045 Q381.294 169.045 379.466 172.61 Q377.66 176.152 377.66 183.281 Q377.66 190.388 379.466 193.953 Q381.294 197.494 384.906 197.494 Q388.54 197.494 390.345 193.953 Q392.174 190.388 392.174 183.281 Q392.174 176.152 390.345 172.61 Q388.54 169.045 384.906 169.045 M384.906 165.342 Q390.716 165.342 393.771 169.948 Q396.85 174.531 396.85 183.281 Q396.85 192.008 393.771 196.615 Q390.716 201.198 384.906 201.198 Q379.095 201.198 376.017 196.615 Q372.961 192.008 372.961 183.281 Q372.961 174.531 376.017 169.948 Q379.095 165.342 384.906 165.342 Z" fill="#000000" fill-rule="nonzero" fill-opacity="1" /><path clip-path="url(#clip530)" d="M405.067 194.647 L409.952 194.647 L409.952 200.527 L405.067 200.527 L405.067 194.647 Z" fill="#000000" fill-rule="nonzero" fill-opacity="1" /><path clip-path="url(#clip530)" d="M420.183 165.967 L438.54 165.967 L438.54 169.902 L424.466 169.902 L424.466 178.374 Q425.484 178.027 426.503 177.865 Q427.521 177.68 428.54 177.68 Q434.327 177.68 437.706 180.851 Q441.086 184.022 441.086 189.439 Q441.086 195.017 437.614 198.119 Q434.141 201.198 427.822 201.198 Q425.646 201.198 423.378 200.828 Q421.132 200.457 418.725 199.716 L418.725 195.017 Q420.808 196.152 423.03 196.707 Q425.253 197.263 427.729 197.263 Q431.734 197.263 434.072 195.156 Q436.41 193.05 436.41 189.439 Q436.41 185.828 434.072 183.721 Q431.734 181.615 427.729 181.615 Q425.854 181.615 423.979 182.031 Q422.128 182.448 420.183 183.328 L420.183 165.967 Z" fill="#000000" fill-rule="nonzero" fill-opacity="1" /><path clip-path="url(#clip530)" d="M460.299 169.045 Q456.688 169.045 454.859 172.61 Q453.053 176.152 453.053 183.281 Q453.053 190.388 454.859 193.953 Q456.688 197.494 460.299 197.494 Q463.933 197.494 465.738 193.953 Q467.567 190.388 467.567 183.281 Q467.567 176.152 465.738 172.61 Q463.933 169.045 460.299 169.045 M460.299 165.342 Q466.109 165.342 469.164 169.948 Q472.243 174.531 472.243 183.281 Q472.243 192.008 469.164 196.615 Q466.109 201.198 460.299 201.198 Q454.489 201.198 451.41 196.615 Q448.354 192.008 448.354 183.281 Q448.354 174.531 451.41 169.948 Q454.489 165.342 460.299 165.342 Z" fill="#000000" fill-rule="nonzero" fill-opacity="1" /><polyline clip-path="url(#clip530)" style="stroke:#3da44d; stroke-linecap:round; stroke-linejoin:round; stroke-width:4; stroke-opacity:1; fill:none" points="268.422,235.087 358.027,235.087 "/>
<path clip-path="url(#clip530)" d="M384.906 220.885 Q381.294 220.885 379.466 224.45 Q377.66 227.992 377.66 235.121 Q377.66 242.228 379.466 245.793 Q381.294 249.334 384.906 249.334 Q388.54 249.334 390.345 245.793 Q392.174 242.228 392.174 235.121 Q392.174 227.992 390.345 224.45 Q388.54 220.885 384.906 220.885 M384.906 217.182 Q390.716 217.182 393.771 221.788 Q396.85 226.371 396.85 235.121 Q396.85 243.848 393.771 248.455 Q390.716 253.038 384.906 253.038 Q379.095 253.038 376.017 248.455 Q372.961 243.848 372.961 235.121 Q372.961 226.371 376.017 221.788 Q379.095 217.182 384.906 217.182 Z" fill="#000000" fill-rule="nonzero" fill-opacity="1" /><path clip-path="url(#clip530)" d="M405.067 246.487 L409.952 246.487 L409.952 252.367 L405.067 252.367 L405.067 246.487 Z" fill="#000000" fill-rule="nonzero" fill-opacity="1" /><path clip-path="url(#clip530)" d="M430.137 235.955 Q426.803 235.955 424.882 237.737 Q422.984 239.519 422.984 242.644 Q422.984 245.769 424.882 247.552 Q426.803 249.334 430.137 249.334 Q433.47 249.334 435.391 247.552 Q437.313 245.746 437.313 242.644 Q437.313 239.519 435.391 237.737 Q433.493 235.955 430.137 235.955 M425.461 233.964 Q422.452 233.223 420.762 231.163 Q419.095 229.103 419.095 226.14 Q419.095 221.996 422.035 219.589 Q424.998 217.182 430.137 217.182 Q435.299 217.182 438.239 219.589 Q441.178 221.996 441.178 226.14 Q441.178 229.103 439.489 231.163 Q437.822 233.223 434.836 233.964 Q438.215 234.751 440.09 237.043 Q441.989 239.334 441.989 242.644 Q441.989 247.668 438.91 250.353 Q435.854 253.038 430.137 253.038 Q424.419 253.038 421.341 250.353 Q418.285 247.668 418.285 242.644 Q418.285 239.334 420.183 237.043 Q422.081 234.751 425.461 233.964 M423.748 226.58 Q423.748 229.265 425.415 230.77 Q427.104 232.274 430.137 232.274 Q433.146 232.274 434.836 230.77 Q436.549 229.265 436.549 226.58 Q436.549 223.895 434.836 222.39 Q433.146 220.885 430.137 220.885 Q427.104 220.885 425.415 222.39 Q423.748 223.895 423.748 226.58 Z" fill="#000000" fill-rule="nonzero" fill-opacity="1" /><path clip-path="url(#clip530)" d="M460.299 220.885 Q456.688 220.885 454.859 224.45 Q453.053 227.992 453.053 235.121 Q453.053 242.228 454.859 245.793 Q456.688 249.334 460.299 249.334 Q463.933 249.334 465.738 245.793 Q467.567 242.228 467.567 235.121 Q467.567 227.992 465.738 224.45 Q463.933 220.885 460.299 220.885 M460.299 217.182 Q466.109 217.182 469.164 221.788 Q472.243 226.371 472.243 235.121 Q472.243 243.848 469.164 248.455 Q466.109 253.038 460.299 253.038 Q454.489 253.038 451.41 248.455 Q448.354 243.848 448.354 235.121 Q448.354 226.371 451.41 221.788 Q454.489 217.182 460.299 217.182 Z" fill="#000000" fill-rule="nonzero" fill-opacity="1" /></svg>
