<?xml version="1.0" encoding="utf-8"?>
<svg xmlns="http://www.w3.org/2000/svg" xmlns:xlink="http://www.w3.org/1999/xlink" width="400" height="300" viewBox="0 0 1600 1200">
<defs>
  <clipPath id="clip290">
    <rect x="0" y="0" width="1600" height="1200"/>
  </clipPath>
</defs>
<path clip-path="url(#clip290)" d="M0 1200 L1600 1200 L1600 0 L0 0  Z" fill="#ffffff" fill-rule="evenodd" fill-opacity="1"/>
<defs>
  <clipPath id="clip291">
    <rect x="320" y="0" width="1121" height="1121"/>
  </clipPath>
</defs>
<path clip-path="url(#clip290)" d="M209.265 1016.92 L1552.76 1016.92 L1552.76 47.2441 L209.265 47.2441  Z" fill="#ffffff" fill-rule="evenodd" fill-opacity="1"/>
<defs>
  <clipPath id="clip292">
    <rect x="209" y="47" width="1344" height="971"/>
  </clipPath>
</defs>
<polyline clip-path="url(#clip292)" style="stroke:#000000; stroke-linecap:round; stroke-linejoin:round; stroke-width:2; stroke-opacity:0.1; fill:none" points="247.288,1016.92 247.288,47.2441 "/>
<polyline clip-path="url(#clip292)" style="stroke:#000000; stroke-linecap:round; stroke-linejoin:round; stroke-width:2; stroke-opacity:0.1; fill:none" points="564.149,1016.92 564.149,47.2441 "/>
<polyline clip-path="url(#clip292)" style="stroke:#000000; stroke-linecap:round; stroke-linejoin:round; stroke-width:2; stroke-opacity:0.1; fill:none" points="881.01,1016.92 881.01,47.2441 "/>
<polyline clip-path="url(#clip292)" style="stroke:#000000; stroke-linecap:round; stroke-linejoin:round; stroke-width:2; stroke-opacity:0.1; fill:none" points="1197.87,1016.92 1197.87,47.2441 "/>
<polyline clip-path="url(#clip292)" style="stroke:#000000; stroke-linecap:round; stroke-linejoin:round; stroke-width:2; stroke-opacity:0.1; fill:none" points="1514.73,1016.92 1514.73,47.2441 "/>
<polyline clip-path="url(#clip290)" style="stroke:#000000; stroke-linecap:round; stroke-linejoin:round; stroke-width:4; stroke-opacity:1; fill:none" points="209.265,1016.92 1552.76,1016.92 "/>
<polyline clip-path="url(#clip290)" style="stroke:#000000; stroke-linecap:round; stroke-linejoin:round; stroke-width:4; stroke-opacity:1; fill:none" points="247.288,1016.92 247.288,998.022 "/>
<polyline clip-path="url(#clip290)" style="stroke:#000000; stroke-linecap:round; stroke-linejoin:round; stroke-width:4; stroke-opacity:1; fill:none" points="564.149,1016.92 564.149,998.022 "/>
<polyline clip-path="url(#clip290)" style="stroke:#000000; stroke-linecap:round; stroke-linejoin:round; stroke-width:4; stroke-opacity:1; fill:none" points="881.01,1016.92 881.01,998.022 "/>
<polyline clip-path="url(#clip290)" style="stroke:#000000; stroke-linecap:round; stroke-linejoin:round; stroke-width:4; stroke-opacity:1; fill:none" points="1197.87,1016.92 1197.87,998.022 "/>
<polyline clip-path="url(#clip290)" style="stroke:#000000; stroke-linecap:round; stroke-linejoin:round; stroke-width:4; stroke-opacity:1; fill:none" points="1514.73,1016.92 1514.73,998.022 "/>
<path clip-path="url(#clip290)" d="M217.23 1056.09 L246.906 1056.09 L246.906 1060.03 L217.23 1060.03 L217.23 1056.09 Z" fill="#000000" fill-rule="nonzero" fill-opacity="1" /><path clip-path="url(#clip290)" d="M261.026 1068.98 L277.346 1068.98 L277.346 1072.92 L255.401 1072.92 L255.401 1068.98 Q258.063 1066.23 262.647 1061.6 Q267.253 1056.95 268.434 1055.61 Q270.679 1053.08 271.559 1051.35 Q272.461 1049.59 272.461 1047.9 Q272.461 1045.14 270.517 1043.41 Q268.596 1041.67 265.494 1041.67 Q263.295 1041.67 260.841 1042.43 Q258.411 1043.2 255.633 1044.75 L255.633 1040.03 Q258.457 1038.89 260.911 1038.31 Q263.364 1037.73 265.401 1037.73 Q270.772 1037.73 273.966 1040.42 Q277.161 1043.11 277.161 1047.6 Q277.161 1049.73 276.35 1051.65 Q275.563 1053.54 273.457 1056.14 Q272.878 1056.81 269.776 1060.03 Q266.674 1063.22 261.026 1068.98 Z" fill="#000000" fill-rule="nonzero" fill-opacity="1" /><path clip-path="url(#clip290)" d="M533.906 1056.09 L563.582 1056.09 L563.582 1060.03 L533.906 1060.03 L533.906 1056.09 Z" fill="#000000" fill-rule="nonzero" fill-opacity="1" /><path clip-path="url(#clip290)" d="M574.485 1068.98 L582.124 1068.98 L582.124 1042.62 L573.813 1044.29 L573.813 1040.03 L582.077 1038.36 L586.753 1038.36 L586.753 1068.98 L594.392 1068.98 L594.392 1072.92 L574.485 1072.92 L574.485 1068.98 Z" fill="#000000" fill-rule="nonzero" fill-opacity="1" /><path clip-path="url(#clip290)" d="M881.01 1041.44 Q877.399 1041.44 875.57 1045 Q873.765 1048.54 873.765 1055.67 Q873.765 1062.78 875.57 1066.35 Q877.399 1069.89 881.01 1069.89 Q884.645 1069.89 886.45 1066.35 Q888.279 1062.78 888.279 1055.67 Q888.279 1048.54 886.45 1045 Q884.645 1041.44 881.01 1041.44 M881.01 1037.73 Q886.82 1037.73 889.876 1042.34 Q892.955 1046.92 892.955 1055.67 Q892.955 1064.4 889.876 1069.01 Q886.82 1073.59 881.01 1073.59 Q875.2 1073.59 872.121 1069.01 Q869.066 1064.4 869.066 1055.67 Q869.066 1046.92 872.121 1042.34 Q875.2 1037.73 881.01 1037.73 Z" fill="#000000" fill-rule="nonzero" fill-opacity="1" /><path clip-path="url(#clip290)" d="M1188.25 1068.98 L1195.89 1068.98 L1195.89 1042.62 L1187.58 1044.29 L1187.58 1040.03 L1195.85 1038.36 L1200.52 1038.36 L1200.52 1068.98 L1208.16 1068.98 L1208.16 1072.92 L1188.25 1072.92 L1188.25 1068.98 Z" fill="#000000" fill-rule="nonzero" fill-opacity="1" /><path clip-path="url(#clip290)" d="M1509.39 1068.98 L1525.7 1068.98 L1525.7 1072.92 L1503.76 1072.92 L1503.76 1068.98 Q1506.42 1066.23 1511.01 1061.6 Q1515.61 1056.95 1516.79 1055.61 Q1519.04 1053.08 1519.92 1051.35 Q1520.82 1049.59 1520.82 1047.9 Q1520.82 1045.14 1518.88 1043.41 Q1516.95 1041.67 1513.85 1041.67 Q1511.65 1041.67 1509.2 1042.43 Q1506.77 1043.2 1503.99 1044.75 L1503.99 1040.03 Q1506.82 1038.89 1509.27 1038.31 Q1511.72 1037.73 1513.76 1037.73 Q1519.13 1037.73 1522.33 1040.42 Q1525.52 1043.11 1525.52 1047.6 Q1525.52 1049.73 1524.71 1051.65 Q1523.92 1053.54 1521.82 1056.14 Q1521.24 1056.81 1518.14 1060.03 Q1515.03 1063.22 1509.39 1068.98 Z" fill="#000000" fill-rule="nonzero" fill-opacity="1" /><path clip-path="url(#clip290)" d="M895.185 1110.54 Q895.185 1112.34 894.058 1113.38 Q892.931 1114.37 891.643 1114.37 Q890.419 1114.37 889.775 1113.67 Q889.13 1112.96 889.13 1112.05 Q889.13 1110.83 890.032 1109.77 Q890.934 1108.71 892.287 1108.48 Q890.966 1107.64 889.002 1107.64 Q887.713 1107.64 886.586 1108.32 Q885.491 1109 884.815 1109.86 Q884.171 1110.73 883.591 1111.99 Q883.044 1113.21 882.818 1113.95 Q882.625 1114.66 882.464 1115.44 L880.209 1124.45 Q879.114 1128.74 879.114 1130.25 Q879.114 1132.12 880.016 1133.37 Q880.918 1134.6 882.722 1134.6 Q883.43 1134.6 884.235 1134.41 Q885.04 1134.18 886.071 1133.6 Q887.134 1132.99 888.068 1132.09 Q889.034 1131.15 889.968 1129.57 Q890.902 1128 891.514 1125.97 Q891.707 1125.26 892.351 1125.26 Q893.156 1125.26 893.156 1125.9 Q893.156 1126.45 892.705 1127.61 Q892.287 1128.74 891.353 1130.22 Q890.451 1131.67 889.259 1132.99 Q888.068 1134.28 886.296 1135.18 Q884.525 1136.08 882.593 1136.08 Q879.823 1136.08 877.987 1134.6 Q876.152 1133.12 875.475 1131.06 Q875.314 1131.35 875.089 1131.73 Q874.863 1132.12 874.187 1132.99 Q873.543 1133.83 872.802 1134.47 Q872.061 1135.08 870.902 1135.56 Q869.775 1136.08 868.551 1136.08 Q867.005 1136.08 865.62 1135.63 Q864.268 1135.18 863.301 1134.15 Q862.335 1133.12 862.335 1131.7 Q862.335 1130.12 863.398 1129.03 Q864.493 1127.9 865.974 1127.9 Q866.908 1127.9 867.649 1128.45 Q868.422 1128.99 868.422 1130.19 Q868.422 1131.51 867.52 1132.51 Q866.619 1133.5 865.33 1133.76 Q866.651 1134.6 868.615 1134.6 Q870.741 1134.6 872.416 1132.73 Q874.09 1130.86 874.895 1127.74 Q876.892 1120.24 877.665 1116.89 Q878.438 1113.5 878.438 1112.05 Q878.438 1110.7 878.084 1109.77 Q877.73 1108.83 877.118 1108.42 Q876.538 1107.96 875.99 1107.8 Q875.475 1107.64 874.895 1107.64 Q873.929 1107.64 872.834 1108.03 Q871.772 1108.42 870.483 1109.32 Q869.227 1110.19 868.036 1111.99 Q866.844 1113.79 866.039 1116.27 Q865.878 1117.01 865.169 1117.01 Q864.396 1116.98 864.396 1116.34 Q864.396 1115.79 864.815 1114.66 Q865.266 1113.5 866.168 1112.05 Q867.102 1110.61 868.293 1109.32 Q869.517 1108 871.288 1107.1 Q873.092 1106.19 875.024 1106.19 Q875.894 1106.19 876.731 1106.39 Q877.601 1106.55 878.631 1107.03 Q879.694 1107.51 880.628 1108.58 Q881.562 1109.64 882.142 1111.19 Q882.528 1110.44 883.044 1109.74 Q883.591 1109.03 884.428 1108.16 Q885.298 1107.26 886.49 1106.74 Q887.713 1106.19 889.066 1106.19 Q890.387 1106.19 891.675 1106.55 Q892.963 1106.87 894.058 1107.93 Q895.185 1108.96 895.185 1110.54 Z" fill="#000000" fill-rule="nonzero" fill-opacity="1" /><polyline clip-path="url(#clip292)" style="stroke:#000000; stroke-linecap:round; stroke-linejoin:round; stroke-width:2; stroke-opacity:0.1; fill:none" points="209.265,985.713 1552.76,985.713 "/>
<polyline clip-path="url(#clip292)" style="stroke:#000000; stroke-linecap:round; stroke-linejoin:round; stroke-width:2; stroke-opacity:0.1; fill:none" points="209.265,823.604 1552.76,823.604 "/>
<polyline clip-path="url(#clip292)" style="stroke:#000000; stroke-linecap:round; stroke-linejoin:round; stroke-width:2; stroke-opacity:0.1; fill:none" points="209.265,661.495 1552.76,661.495 "/>
<polyline clip-path="url(#clip292)" style="stroke:#000000; stroke-linecap:round; stroke-linejoin:round; stroke-width:2; stroke-opacity:0.1; fill:none" points="209.265,499.385 1552.76,499.385 "/>
<polyline clip-path="url(#clip292)" style="stroke:#000000; stroke-linecap:round; stroke-linejoin:round; stroke-width:2; stroke-opacity:0.1; fill:none" points="209.265,337.276 1552.76,337.276 "/>
<polyline clip-path="url(#clip292)" style="stroke:#000000; stroke-linecap:round; stroke-linejoin:round; stroke-width:2; stroke-opacity:0.1; fill:none" points="209.265,175.166 1552.76,175.166 "/>
<polyline clip-path="url(#clip290)" style="stroke:#000000; stroke-linecap:round; stroke-linejoin:round; stroke-width:4; stroke-opacity:1; fill:none" points="209.265,1016.92 209.265,47.2441 "/>
<polyline clip-path="url(#clip290)" style="stroke:#000000; stroke-linecap:round; stroke-linejoin:round; stroke-width:4; stroke-opacity:1; fill:none" points="209.265,985.713 228.162,985.713 "/>
<polyline clip-path="url(#clip290)" style="stroke:#000000; stroke-linecap:round; stroke-linejoin:round; stroke-width:4; stroke-opacity:1; fill:none" points="209.265,823.604 228.162,823.604 "/>
<polyline clip-path="url(#clip290)" style="stroke:#000000; stroke-linecap:round; stroke-linejoin:round; stroke-width:4; stroke-opacity:1; fill:none" points="209.265,661.495 228.162,661.495 "/>
<polyline clip-path="url(#clip290)" style="stroke:#000000; stroke-linecap:round; stroke-linejoin:round; stroke-width:4; stroke-opacity:1; fill:none" points="209.265,499.385 228.162,499.385 "/>
<polyline clip-path="url(#clip290)" style="stroke:#000000; stroke-linecap:round; stroke-linejoin:round; stroke-width:4; stroke-opacity:1; fill:none" points="209.265,337.276 228.162,337.276 "/>
<polyline clip-path="url(#clip290)" style="stroke:#000000; stroke-linecap:round; stroke-linejoin:round; stroke-width:4; stroke-opacity:1; fill:none" points="209.265,175.166 228.162,175.166 "/>
<path clip-path="url(#clip290)" d="M124.2 986.165 L153.876 986.165 L153.876 990.1 L124.2 990.1 L124.2 986.165 Z" fill="#000000" fill-rule="nonzero" fill-opacity="1" /><path clip-path="url(#clip290)" d="M178.135 984.359 Q181.492 985.077 183.367 987.345 Q185.265 989.614 185.265 992.947 Q185.265 998.063 181.746 1000.86 Q178.228 1003.66 171.746 1003.66 Q169.57 1003.66 167.255 1003.22 Q164.964 1002.81 162.51 1001.95 L162.51 997.438 Q164.455 998.572 166.769 999.151 Q169.084 999.729 171.607 999.729 Q176.005 999.729 178.297 997.993 Q180.612 996.257 180.612 992.947 Q180.612 989.892 178.459 988.179 Q176.33 986.443 172.51 986.443 L168.482 986.443 L168.482 982.6 L172.695 982.6 Q176.144 982.6 177.973 981.234 Q179.802 979.845 179.802 977.253 Q179.802 974.591 177.904 973.179 Q176.029 971.744 172.51 971.744 Q170.589 971.744 168.39 972.16 Q166.191 972.577 163.552 973.456 L163.552 969.29 Q166.214 968.549 168.529 968.179 Q170.867 967.808 172.927 967.808 Q178.251 967.808 181.353 970.239 Q184.454 972.646 184.454 976.767 Q184.454 979.637 182.811 981.628 Q181.167 983.595 178.135 984.359 Z" fill="#000000" fill-rule="nonzero" fill-opacity="1" /><path clip-path="url(#clip290)" d="M125.149 824.055 L154.825 824.055 L154.825 827.99 L125.149 827.99 L125.149 824.055 Z" fill="#000000" fill-rule="nonzero" fill-opacity="1" /><path clip-path="url(#clip290)" d="M168.945 836.949 L185.265 836.949 L185.265 840.884 L163.32 840.884 L163.32 836.949 Q165.982 834.194 170.566 829.565 Q175.172 824.912 176.353 823.569 Q178.598 821.046 179.478 819.31 Q180.38 817.551 180.38 815.861 Q180.38 813.106 178.436 811.37 Q176.515 809.634 173.413 809.634 Q171.214 809.634 168.76 810.398 Q166.33 811.162 163.552 812.713 L163.552 807.991 Q166.376 806.856 168.83 806.278 Q171.283 805.699 173.32 805.699 Q178.691 805.699 181.885 808.384 Q185.079 811.069 185.079 815.56 Q185.079 817.69 184.269 819.611 Q183.482 821.509 181.376 824.102 Q180.797 824.773 177.695 827.99 Q174.593 831.185 168.945 836.949 Z" fill="#000000" fill-rule="nonzero" fill-opacity="1" /><path clip-path="url(#clip290)" d="M124.779 661.946 L154.455 661.946 L154.455 665.881 L124.779 665.881 L124.779 661.946 Z" fill="#000000" fill-rule="nonzero" fill-opacity="1" /><path clip-path="url(#clip290)" d="M165.357 674.839 L172.996 674.839 L172.996 648.474 L164.686 650.14 L164.686 645.881 L172.95 644.215 L177.626 644.215 L177.626 674.839 L185.265 674.839 L185.265 678.775 L165.357 678.775 L165.357 674.839 Z" fill="#000000" fill-rule="nonzero" fill-opacity="1" /><path clip-path="url(#clip290)" d="M173.32 485.184 Q169.709 485.184 167.88 488.749 Q166.075 492.29 166.075 499.42 Q166.075 506.526 167.88 510.091 Q169.709 513.633 173.32 513.633 Q176.955 513.633 178.76 510.091 Q180.589 506.526 180.589 499.42 Q180.589 492.29 178.76 488.749 Q176.955 485.184 173.32 485.184 M173.32 481.48 Q179.13 481.48 182.186 486.087 Q185.265 490.67 185.265 499.42 Q185.265 508.147 182.186 512.753 Q179.13 517.336 173.32 517.336 Q167.51 517.336 164.431 512.753 Q161.376 508.147 161.376 499.42 Q161.376 490.67 164.431 486.087 Q167.51 481.48 173.32 481.48 Z" fill="#000000" fill-rule="nonzero" fill-opacity="1" /><path clip-path="url(#clip290)" d="M165.357 350.621 L172.996 350.621 L172.996 324.255 L164.686 325.922 L164.686 321.662 L172.95 319.996 L177.626 319.996 L177.626 350.621 L185.265 350.621 L185.265 354.556 L165.357 354.556 L165.357 350.621 Z" fill="#000000" fill-rule="nonzero" fill-opacity="1" /><path clip-path="url(#clip290)" d="M168.945 188.511 L185.265 188.511 L185.265 192.446 L163.32 192.446 L163.32 188.511 Q165.982 185.756 170.566 181.127 Q175.172 176.474 176.353 175.132 Q178.598 172.608 179.478 170.872 Q180.38 169.113 180.38 167.423 Q180.38 164.669 178.436 162.933 Q176.515 161.196 173.413 161.196 Q171.214 161.196 168.76 161.96 Q166.33 162.724 163.552 164.275 L163.552 159.553 Q166.376 158.419 168.83 157.84 Q171.283 157.261 173.32 157.261 Q178.691 157.261 181.885 159.946 Q185.079 162.632 185.079 167.122 Q185.079 169.252 184.269 171.173 Q183.482 173.071 181.376 175.664 Q180.797 176.335 177.695 179.553 Q174.593 182.747 168.945 188.511 Z" fill="#000000" fill-rule="nonzero" fill-opacity="1" /><path clip-path="url(#clip290)" d="M52.7883 517.643 Q53.2392 517.643 54.302 517.933 L79.4869 524.245 Q85.0908 525.63 89.0199 530.139 Q92.949 534.616 92.949 539.704 Q92.949 542.764 91.3065 544.728 Q89.6962 546.693 87.2164 546.693 Q85.0264 546.693 83.9636 545.534 Q82.933 544.374 82.933 542.989 Q82.933 542.538 83.0618 542.055 Q83.1906 541.572 83.7381 541.057 Q84.2856 540.542 85.2196 540.542 Q86.7333 540.542 87.9249 541.862 Q88.4724 542.506 88.6012 543.118 Q88.73 543.698 88.73 544.696 Q89.6318 544.31 90.2437 543.601 Q90.8556 542.893 91.0811 542.087 Q91.3387 541.282 91.4031 540.767 Q91.4997 540.22 91.4997 539.704 Q91.4997 535.582 87.3452 532.426 Q86.0891 531.492 84.8331 530.815 Q83.6093 530.107 82.0956 529.592 Q80.6141 529.076 79.809 528.851 Q79.0039 528.593 77.1681 528.142 Q80.1633 531.138 80.1633 534.809 Q80.1633 536.355 79.7446 537.74 Q79.3259 539.092 78.4564 540.284 Q77.5546 541.476 75.9765 542.184 Q74.3984 542.86 72.305 542.86 Q70.0828 542.86 67.0555 541.991 Q64.0281 541.121 58.4565 539.028 Q55.3325 537.901 53.8189 537.901 Q53.0781 537.901 52.6273 538.062 Q52.1442 538.223 51.9831 538.545 Q51.7899 538.867 51.7577 539.06 Q51.7255 539.221 51.7255 539.543 Q51.7255 541.443 53.6578 543.215 Q55.5902 544.986 59.9058 546.21 Q60.7109 546.467 60.9042 546.629 Q61.0974 546.79 61.0974 547.273 Q61.0652 548.078 60.4211 548.078 Q60.1634 548.078 59.165 547.788 Q58.1345 547.498 56.6208 546.822 Q55.0749 546.113 53.69 545.147 Q52.273 544.181 51.2746 542.667 Q50.2762 541.121 50.2762 539.35 Q50.2762 536.935 51.8543 535.453 Q53.4002 533.939 55.6868 533.939 Q56.6208 533.939 57.4581 534.197 Q58.2633 534.423 60.4211 535.26 Q69.1167 538.641 73.3678 538.641 Q74.3984 538.641 75.268 538.48 Q76.1053 538.287 76.9427 537.869 Q77.7478 537.45 78.2309 536.613 Q78.6818 535.743 78.6818 534.551 Q78.6818 533.038 77.9733 531.621 Q77.2325 530.171 76.2342 529.27 Q75.2358 528.336 74.3984 527.788 Q73.5289 527.208 73.078 527.08 L61.2262 524.117 L55.9445 522.796 Q53.0781 522.184 52.3696 521.894 Q51.6933 521.508 51.339 520.832 Q50.9848 520.155 50.9848 519.576 Q50.9848 518.77 51.4678 518.223 Q51.9509 517.643 52.7883 517.643 Z" fill="#000000" fill-rule="nonzero" fill-opacity="1" /><polyline clip-path="url(#clip292)" style="stroke:#009af9; stroke-linecap:round; stroke-linejoin:round; stroke-width:4; stroke-opacity:1; fill:none" points="247.288,989.476 313.996,936.035 380.703,884.479 447.411,835.679 514.118,790.386 580.826,749.223 647.534,712.684 714.241,681.132 780.949,654.797 847.656,633.775 914.364,618.031 981.072,607.412 1047.78,601.659 1114.49,600.421 1181.19,603.266 1247.9,609.68 1314.61,619.07 1381.32,630.761 1448.02,644 1514.73,657.977 "/>
<polyline clip-path="url(#clip292)" style="stroke:#e26f46; stroke-linecap:round; stroke-linejoin:round; stroke-width:4; stroke-opacity:1; fill:none" points="247.288,713.742 313.996,684.458 380.703,656.916 447.411,631.225 514.118,607.348 580.826,585.148 647.534,564.426 714.241,544.956 780.949,526.51 847.656,508.87 914.364,491.842 981.072,475.26 1047.78,458.995 1114.49,442.959 1181.19,427.107 1247.9,411.434 1314.61,395.957 1381.32,380.688 1448.02,365.591 1514.73,350.527 "/>
<polyline clip-path="url(#clip292)" style="stroke:#3da44d; stroke-linecap:round; stroke-linejoin:round; stroke-width:4; stroke-opacity:1; fill:none" points="247.288,403.745 313.996,401.039 380.703,399.464 447.411,398.55 514.118,397.639 580.826,395.957 647.534,392.687 714.241,387.042 780.949,378.331 847.656,366.01 914.364,349.729 981.072,329.354 1047.78,304.982 1114.49,276.95 1181.19,245.821 1247.9,212.366 1314.61,177.523 1381.32,142.315 1448.02,107.751 1514.73,74.6877 "/>
<path clip-path="url(#clip290)" d="M254.048 286.927 L487.679 286.927 L487.679 79.5666 L254.048 79.5666  Z" fill="#ffffff" fill-rule="evenodd" fill-opacity="1"/>
<polyline clip-path="url(#clip290)" style="stroke:#000000; stroke-linecap:round; stroke-linejoin:round; stroke-width:4; stroke-opacity:1; fill:none" points="254.048,286.927 487.679,286.927 487.679,79.5666 254.048,79.5666 254.048,286.927 "/>
<polyline clip-path="url(#clip290)" style="stroke:#009af9; stroke-linecap:round; stroke-linejoin:round; stroke-width:4; stroke-opacity:1; fill:none" points="268.975,131.407 358.541,131.407 "/>
<path clip-path="url(#clip290)" d="M385.414 117.205 Q381.802 117.205 379.974 120.77 Q378.168 124.312 378.168 131.441 Q378.168 138.548 379.974 142.113 Q381.802 145.654 385.414 145.654 Q389.048 145.654 390.853 142.113 Q392.682 138.548 392.682 131.441 Q392.682 124.312 390.853 120.77 Q389.048 117.205 385.414 117.205 M385.414 113.502 Q391.224 113.502 394.279 118.108 Q397.358 122.691 397.358 131.441 Q397.358 140.168 394.279 144.775 Q391.224 149.358 385.414 149.358 Q379.603 149.358 376.525 144.775 Q373.469 140.168 373.469 131.441 Q373.469 122.691 376.525 118.108 Q379.603 113.502 385.414 113.502 Z" fill="#000000" fill-rule="nonzero" fill-opacity="1" /><path clip-path="url(#clip290)" d="M405.575 142.807 L410.46 142.807 L410.46 148.687 L405.575 148.687 L405.575 142.807 Z" fill="#000000" fill-rule="nonzero" fill-opacity="1" /><path clip-path="url(#clip290)" d="M424.673 144.751 L440.992 144.751 L440.992 148.687 L419.048 148.687 L419.048 144.751 Q421.71 141.997 426.293 137.367 Q430.899 132.714 432.08 131.372 Q434.325 128.849 435.205 127.113 Q436.108 125.353 436.108 123.664 Q436.108 120.909 434.163 119.173 Q432.242 117.437 429.14 117.437 Q426.941 117.437 424.487 118.201 Q422.057 118.965 419.279 120.515 L419.279 115.793 Q422.103 114.659 424.557 114.08 Q427.011 113.502 429.048 113.502 Q434.418 113.502 437.612 116.187 Q440.807 118.872 440.807 123.363 Q440.807 125.492 439.997 127.414 Q439.21 129.312 437.103 131.904 Q436.524 132.576 433.423 135.793 Q430.321 138.988 424.673 144.751 Z" fill="#000000" fill-rule="nonzero" fill-opacity="1" /><path clip-path="url(#clip290)" d="M460.807 117.205 Q457.196 117.205 455.367 120.77 Q453.561 124.312 453.561 131.441 Q453.561 138.548 455.367 142.113 Q457.196 145.654 460.807 145.654 Q464.441 145.654 466.246 142.113 Q468.075 138.548 468.075 131.441 Q468.075 124.312 466.246 120.77 Q464.441 117.205 460.807 117.205 M460.807 113.502 Q466.617 113.502 469.672 118.108 Q472.751 122.691 472.751 131.441 Q472.751 140.168 469.672 144.775 Q466.617 149.358 460.807 149.358 Q454.996 149.358 451.918 144.775 Q448.862 140.168 448.862 131.441 Q448.862 122.691 451.918 118.108 Q454.996 113.502 460.807 113.502 Z" fill="#000000" fill-rule="nonzero" fill-opacity="1" /><polyline clip-path="url(#clip290)" style="stroke:#e26f46; stroke-linecap:round; stroke-linejoin:round; stroke-width:4; stroke-opacity:1; fill:none" points="268.975,183.247 358.541,183.247 "/>
<path clip-path="url(#clip290)" d="M385.414 169.045 Q381.802 169.045 379.974 172.61 Q378.168 176.152 378.168 183.281 Q378.168 190.388 379.974 193.953 Q381.802 197.494 385.414 197.494 Q389.048 197.494 390.853 193.953 Q392.682 190.388 392.682 183.281 Q392.682 176.152 390.853 172.61 Q389.048 169.045 385.414 169.045 M385.414 165.342 Q391.224 165.342 394.279 169.948 Q397.358 174.531 397.358 183.281 Q397.358 192.008 394.279 196.615 Q391.224 201.198 385.414 201.198 Q379.603 201.198 376.525 196.615 Q373.469 192.008 373.469 183.281 Q373.469 174.531 376.525 169.948 Q379.603 165.342 385.414 165.342 Z" fill="#000000" fill-rule="nonzero" fill-opacity="1" /><path clip-path="url(#clip290)" d="M405.575 194.647 L410.46 194.647 L410.46 200.527 L405.575 200.527 L405.575 194.647 Z" fill="#000000" fill-rule="nonzero" fill-opacity="1" /><path clip-path="url(#clip290)" d="M420.691 165.967 L439.047 165.967 L439.047 169.902 L424.973 169.902 L424.973 178.374 Q425.992 178.027 427.011 177.865 Q428.029 177.68 429.048 177.68 Q434.835 177.68 438.214 180.851 Q441.594 184.022 441.594 189.439 Q441.594 195.017 438.122 198.119 Q434.649 201.198 428.33 201.198 Q426.154 201.198 423.886 200.828 Q421.64 200.457 419.233 199.716 L419.233 195.017 Q421.316 196.152 423.538 196.707 Q425.761 197.263 428.237 197.263 Q432.242 197.263 434.58 195.156 Q436.918 193.05 436.918 189.439 Q436.918 185.828 434.58 183.721 Q432.242 181.615 428.237 181.615 Q426.362 181.615 424.487 182.031 Q422.636 182.448 420.691 183.328 L420.691 165.967 Z" fill="#000000" fill-rule="nonzero" fill-opacity="1" /><path clip-path="url(#clip290)" d="M460.807 169.045 Q457.196 169.045 455.367 172.61 Q453.561 176.152 453.561 183.281 Q453.561 190.388 455.367 193.953 Q457.196 197.494 460.807 197.494 Q464.441 197.494 466.246 193.953 Q468.075 190.388 468.075 183.281 Q468.075 176.152 466.246 172.61 Q464.441 169.045 460.807 169.045 M460.807 165.342 Q466.617 165.342 469.672 169.948 Q472.751 174.531 472.751 183.281 Q472.751 192.008 469.672 196.615 Q466.617 201.198 460.807 201.198 Q454.996 201.198 451.918 196.615 Q448.862 192.008 448.862 183.281 Q448.862 174.531 451.918 169.948 Q454.996 165.342 460.807 165.342 Z" fill="#000000" fill-rule="nonzero" fill-opacity="1" /><polyline clip-path="url(#clip290)" style="stroke:#3da44d; stroke-linecap:round; stroke-linejoin:round; stroke-width:4; stroke-opacity:1; fill:none" points="268.975,235.087 358.541,235.087 "/>
<path clip-path="url(#clip290)" d="M385.414 220.885 Q381.802 220.885 379.974 224.45 Q378.168 227.992 378.168 235.121 Q378.168 242.228 379.974 245.793 Q381.802 249.334 385.414 249.334 Q389.048 249.334 390.853 245.793 Q392.682 242.228 392.682 235.121 Q392.682 227.992 390.853 224.45 Q389.048 220.885 385.414 220.885 M385.414 217.182 Q391.224 217.182 394.279 221.788 Q397.358 226.371 397.358 235.121 Q397.358 243.848 394.279 248.455 Q391.224 253.038 385.414 253.038 Q379.603 253.038 376.525 248.455 Q373.469 243.848 373.469 235.121 Q373.469 226.371 376.525 221.788 Q379.603 217.182 385.414 217.182 Z" fill="#000000" fill-rule="nonzero" fill-opacity="1" /><path clip-path="url(#clip290)" d="M405.575 246.487 L410.46 246.487 L410.46 252.367 L405.575 252.367 L405.575 246.487 Z" fill="#000000" fill-rule="nonzero" fill-opacity="1" /><path clip-path="url(#clip290)" d="M430.645 235.955 Q427.311 235.955 425.39 237.737 Q423.492 239.519 423.492 242.644 Q423.492 245.769 425.39 247.552 Q427.311 249.334 430.645 249.334 Q433.978 249.334 435.899 247.552 Q437.821 245.746 437.821 242.644 Q437.821 239.519 435.899 237.737 Q434.001 235.955 430.645 235.955 M425.969 233.964 Q422.96 233.223 421.27 231.163 Q419.603 229.103 419.603 226.14 Q419.603 221.996 422.543 219.589 Q425.506 217.182 430.645 217.182 Q435.807 217.182 438.747 219.589 Q441.686 221.996 441.686 226.14 Q441.686 229.103 439.997 231.163 Q438.33 233.223 435.344 233.964 Q438.723 234.751 440.598 237.043 Q442.497 239.334 442.497 242.644 Q442.497 247.668 439.418 250.353 Q436.362 253.038 430.645 253.038 Q424.927 253.038 421.849 250.353 Q418.793 247.668 418.793 242.644 Q418.793 239.334 420.691 237.043 Q422.589 234.751 425.969 233.964 M424.256 226.58 Q424.256 229.265 425.923 230.77 Q427.612 232.274 430.645 232.274 Q433.654 232.274 435.344 230.77 Q437.057 229.265 437.057 226.58 Q437.057 223.895 435.344 222.39 Q433.654 220.885 430.645 220.885 Q427.612 220.885 425.923 222.39 Q424.256 223.895 424.256 226.58 Z" fill="#000000" fill-rule="nonzero" fill-opacity="1" /><path clip-path="url(#clip290)" d="M460.807 220.885 Q457.196 220.885 455.367 224.45 Q453.561 227.992 453.561 235.121 Q453.561 242.228 455.367 245.793 Q457.196 249.334 460.807 249.334 Q464.441 249.334 466.246 245.793 Q468.075 242.228 468.075 235.121 Q468.075 227.992 466.246 224.45 Q464.441 220.885 460.807 220.885 M460.807 217.182 Q466.617 217.182 469.672 221.788 Q472.751 226.371 472.751 235.121 Q472.751 243.848 469.672 248.455 Q466.617 253.038 460.807 253.038 Q454.996 253.038 451.918 248.455 Q448.862 243.848 448.862 235.121 Q448.862 226.371 451.918 221.788 Q454.996 217.182 460.807 217.182 Z" fill="#000000" fill-rule="nonzero" fill-opacity="1" /></svg>
