<?xml version="1.0" encoding="utf-8"?>
<svg xmlns="http://www.w3.org/2000/svg" xmlns:xlink="http://www.w3.org/1999/xlink" width="600" height="400" viewBox="0 0 2400 1600">
<defs>
  <clipPath id="clip470">
    <rect x="0" y="0" width="2400" height="1600"/>
  </clipPath>
</defs>
<path clip-path="url(#clip470)" d="M0 1600 L2400 1600 L2400 0 L0 0  Z" fill="#ffffff" fill-rule="evenodd" fill-opacity="1"/>
<defs>
  <clipPath id="clip471">
    <rect x="480" y="0" width="1681" height="1600"/>
  </clipPath>
</defs>
<path clip-path="url(#clip470)" d="M211.325 1423.18 L2352.76 1423.18 L2352.76 47.2441 L211.325 47.2441  Z" fill="#ffffff" fill-rule="evenodd" fill-opacity="1"/>
<defs>
  <clipPath id="clip472">
    <rect x="211" y="47" width="2142" height="1377"/>
  </clipPath>
</defs>
<polyline clip-path="url(#clip472)" style="stroke:#000000; stroke-linecap:round; stroke-linejoin:round; stroke-width:2; stroke-opacity:0.1; fill:none" points="271.931,1423.18 271.931,47.2441 "/>
<polyline clip-path="url(#clip472)" style="stroke:#000000; stroke-linecap:round; stroke-linejoin:round; stroke-width:2; stroke-opacity:0.1; fill:none" points="776.986,1423.18 776.986,47.2441 "/>
<polyline clip-path="url(#clip472)" style="stroke:#000000; stroke-linecap:round; stroke-linejoin:round; stroke-width:2; stroke-opacity:0.1; fill:none" points="1282.04,1423.18 1282.04,47.2441 "/>
<polyline clip-path="url(#clip472)" style="stroke:#000000; stroke-linecap:round; stroke-linejoin:round; stroke-width:2; stroke-opacity:0.1; fill:none" points="1787.09,1423.18 1787.09,47.2441 "/>
<polyline clip-path="url(#clip472)" style="stroke:#000000; stroke-linecap:round; stroke-linejoin:round; stroke-width:2; stroke-opacity:0.1; fill:none" points="2292.15,1423.18 2292.15,47.2441 "/>
<polyline clip-path="url(#clip470)" style="stroke:#000000; stroke-linecap:round; stroke-linejoin:round; stroke-width:4; stroke-opacity:1; fill:none" points="211.325,1423.18 2352.76,1423.18 "/>
<polyline clip-path="url(#clip470)" style="stroke:#000000; stroke-linecap:round; stroke-linejoin:round; stroke-width:4; stroke-opacity:1; fill:none" points="271.931,1423.18 271.931,1404.28 "/>
<polyline clip-path="url(#clip470)" style="stroke:#000000; stroke-linecap:round; stroke-linejoin:round; stroke-width:4; stroke-opacity:1; fill:none" points="776.986,1423.18 776.986,1404.28 "/>
<polyline clip-path="url(#clip470)" style="stroke:#000000; stroke-linecap:round; stroke-linejoin:round; stroke-width:4; stroke-opacity:1; fill:none" points="1282.04,1423.18 1282.04,1404.28 "/>
<polyline clip-path="url(#clip470)" style="stroke:#000000; stroke-linecap:round; stroke-linejoin:round; stroke-width:4; stroke-opacity:1; fill:none" points="1787.09,1423.18 1787.09,1404.28 "/>
<polyline clip-path="url(#clip470)" style="stroke:#000000; stroke-linecap:round; stroke-linejoin:round; stroke-width:4; stroke-opacity:1; fill:none" points="2292.15,1423.18 2292.15,1404.28 "/>
<path clip-path="url(#clip470)" d="M241.873 1468.75 L271.549 1468.75 L271.549 1472.69 L241.873 1472.69 L241.873 1468.75 Z" fill="#000000" fill-rule="nonzero" fill-opacity="1" /><path clip-path="url(#clip470)" d="M285.67 1481.64 L301.989 1481.64 L301.989 1485.58 L280.045 1485.58 L280.045 1481.64 Q282.707 1478.89 287.29 1474.26 Q291.896 1469.61 293.077 1468.27 Q295.322 1465.74 296.202 1464.01 Q297.105 1462.25 297.105 1460.56 Q297.105 1457.8 295.16 1456.07 Q293.239 1454.33 290.137 1454.33 Q287.938 1454.33 285.484 1455.09 Q283.054 1455.86 280.276 1457.41 L280.276 1452.69 Q283.1 1451.55 285.554 1450.97 Q288.007 1450.39 290.045 1450.39 Q295.415 1450.39 298.609 1453.08 Q301.804 1455.77 301.804 1460.26 Q301.804 1462.39 300.994 1464.31 Q300.207 1466.2 298.1 1468.8 Q297.521 1469.47 294.419 1472.69 Q291.318 1475.88 285.67 1481.64 Z" fill="#000000" fill-rule="nonzero" fill-opacity="1" /><path clip-path="url(#clip470)" d="M746.743 1468.75 L776.419 1468.75 L776.419 1472.69 L746.743 1472.69 L746.743 1468.75 Z" fill="#000000" fill-rule="nonzero" fill-opacity="1" /><path clip-path="url(#clip470)" d="M787.321 1481.64 L794.96 1481.64 L794.96 1455.28 L786.65 1456.95 L786.65 1452.69 L794.914 1451.02 L799.59 1451.02 L799.59 1481.64 L807.229 1481.64 L807.229 1485.58 L787.321 1485.58 L787.321 1481.64 Z" fill="#000000" fill-rule="nonzero" fill-opacity="1" /><path clip-path="url(#clip470)" d="M1282.04 1454.1 Q1278.43 1454.1 1276.6 1457.66 Q1274.79 1461.2 1274.79 1468.33 Q1274.79 1475.44 1276.6 1479.01 Q1278.43 1482.55 1282.04 1482.55 Q1285.67 1482.55 1287.48 1479.01 Q1289.31 1475.44 1289.31 1468.33 Q1289.31 1461.2 1287.48 1457.66 Q1285.67 1454.1 1282.04 1454.1 M1282.04 1450.39 Q1287.85 1450.39 1290.91 1455 Q1293.98 1459.58 1293.98 1468.33 Q1293.98 1477.06 1290.91 1481.67 Q1287.85 1486.25 1282.04 1486.25 Q1276.23 1486.25 1273.15 1481.67 Q1270.1 1477.06 1270.1 1468.33 Q1270.1 1459.58 1273.15 1455 Q1276.23 1450.39 1282.04 1450.39 Z" fill="#000000" fill-rule="nonzero" fill-opacity="1" /><path clip-path="url(#clip470)" d="M1777.48 1481.64 L1785.12 1481.64 L1785.12 1455.28 L1776.81 1456.95 L1776.81 1452.69 L1785.07 1451.02 L1789.75 1451.02 L1789.75 1481.64 L1797.38 1481.64 L1797.38 1485.58 L1777.48 1485.58 L1777.48 1481.64 Z" fill="#000000" fill-rule="nonzero" fill-opacity="1" /><path clip-path="url(#clip470)" d="M2286.8 1481.64 L2303.12 1481.64 L2303.12 1485.58 L2281.18 1485.58 L2281.18 1481.64 Q2283.84 1478.89 2288.42 1474.26 Q2293.03 1469.61 2294.21 1468.27 Q2296.45 1465.74 2297.33 1464.01 Q2298.24 1462.25 2298.24 1460.56 Q2298.24 1457.8 2296.29 1456.07 Q2294.37 1454.33 2291.27 1454.33 Q2289.07 1454.33 2286.62 1455.09 Q2284.19 1455.86 2281.41 1457.41 L2281.41 1452.69 Q2284.23 1451.55 2286.69 1450.97 Q2289.14 1450.39 2291.18 1450.39 Q2296.55 1450.39 2299.74 1453.08 Q2302.94 1455.77 2302.94 1460.26 Q2302.94 1462.39 2302.13 1464.31 Q2301.34 1466.2 2299.23 1468.8 Q2298.65 1469.47 2295.55 1472.69 Q2292.45 1475.88 2286.8 1481.64 Z" fill="#000000" fill-rule="nonzero" fill-opacity="1" /><path clip-path="url(#clip470)" d="M1296.21 1528.8 Q1296.21 1530.61 1295.09 1531.64 Q1293.96 1532.64 1292.67 1532.64 Q1291.45 1532.64 1290.8 1531.93 Q1290.16 1531.22 1290.16 1530.32 Q1290.16 1529.09 1291.06 1528.03 Q1291.96 1526.97 1293.32 1526.74 Q1291.99 1525.91 1290.03 1525.91 Q1288.74 1525.91 1287.61 1526.58 Q1286.52 1527.26 1285.84 1528.13 Q1285.2 1529 1284.62 1530.25 Q1284.07 1531.48 1283.85 1532.22 Q1283.65 1532.93 1283.49 1533.7 L1281.24 1542.72 Q1280.14 1547 1280.14 1548.51 Q1280.14 1550.38 1281.04 1551.64 Q1281.95 1552.86 1283.75 1552.86 Q1284.46 1552.86 1285.26 1552.67 Q1286.07 1552.44 1287.1 1551.86 Q1288.16 1551.25 1289.1 1550.35 Q1290.06 1549.42 1291 1547.84 Q1291.93 1546.26 1292.54 1544.23 Q1292.74 1543.52 1293.38 1543.52 Q1294.18 1543.52 1294.18 1544.17 Q1294.18 1544.71 1293.73 1545.87 Q1293.32 1547 1292.38 1548.48 Q1291.48 1549.93 1290.29 1551.25 Q1289.1 1552.54 1287.32 1553.44 Q1285.55 1554.34 1283.62 1554.34 Q1280.85 1554.34 1279.02 1552.86 Q1277.18 1551.38 1276.5 1549.32 Q1276.34 1549.61 1276.12 1550 Q1275.89 1550.38 1275.22 1551.25 Q1274.57 1552.09 1273.83 1552.73 Q1273.09 1553.34 1271.93 1553.83 Q1270.8 1554.34 1269.58 1554.34 Q1268.03 1554.34 1266.65 1553.89 Q1265.3 1553.44 1264.33 1552.41 Q1263.36 1551.38 1263.36 1549.96 Q1263.36 1548.38 1264.43 1547.29 Q1265.52 1546.16 1267 1546.16 Q1267.94 1546.16 1268.68 1546.71 Q1269.45 1547.26 1269.45 1548.45 Q1269.45 1549.77 1268.55 1550.77 Q1267.65 1551.77 1266.36 1552.02 Q1267.68 1552.86 1269.64 1552.86 Q1271.77 1552.86 1273.44 1550.99 Q1275.12 1549.13 1275.92 1546 Q1277.92 1538.5 1278.69 1535.15 Q1279.47 1531.77 1279.47 1530.32 Q1279.47 1528.96 1279.11 1528.03 Q1278.76 1527.1 1278.15 1526.68 Q1277.57 1526.23 1277.02 1526.07 Q1276.5 1525.91 1275.92 1525.91 Q1274.96 1525.91 1273.86 1526.29 Q1272.8 1526.68 1271.51 1527.58 Q1270.26 1528.45 1269.06 1530.25 Q1267.87 1532.06 1267.07 1534.54 Q1266.91 1535.28 1266.2 1535.28 Q1265.42 1535.24 1265.42 1534.6 Q1265.42 1534.05 1265.84 1532.93 Q1266.29 1531.77 1267.2 1530.32 Q1268.13 1528.87 1269.32 1527.58 Q1270.55 1526.26 1272.32 1525.36 Q1274.12 1524.46 1276.05 1524.46 Q1276.92 1524.46 1277.76 1524.65 Q1278.63 1524.81 1279.66 1525.29 Q1280.72 1525.78 1281.66 1526.84 Q1282.59 1527.9 1283.17 1529.45 Q1283.56 1528.71 1284.07 1528 Q1284.62 1527.29 1285.46 1526.42 Q1286.33 1525.52 1287.52 1525 Q1288.74 1524.46 1290.09 1524.46 Q1291.42 1524.46 1292.7 1524.81 Q1293.99 1525.13 1295.09 1526.19 Q1296.21 1527.23 1296.21 1528.8 Z" fill="#000000" fill-rule="nonzero" fill-opacity="1" /><polyline clip-path="url(#clip472)" style="stroke:#000000; stroke-linecap:round; stroke-linejoin:round; stroke-width:2; stroke-opacity:0.1; fill:none" points="211.325,1389.58 2352.76,1389.58 "/>
<polyline clip-path="url(#clip472)" style="stroke:#000000; stroke-linecap:round; stroke-linejoin:round; stroke-width:2; stroke-opacity:0.1; fill:none" points="211.325,1164.83 2352.76,1164.83 "/>
<polyline clip-path="url(#clip472)" style="stroke:#000000; stroke-linecap:round; stroke-linejoin:round; stroke-width:2; stroke-opacity:0.1; fill:none" points="211.325,940.088 2352.76,940.088 "/>
<polyline clip-path="url(#clip472)" style="stroke:#000000; stroke-linecap:round; stroke-linejoin:round; stroke-width:2; stroke-opacity:0.1; fill:none" points="211.325,715.343 2352.76,715.343 "/>
<polyline clip-path="url(#clip472)" style="stroke:#000000; stroke-linecap:round; stroke-linejoin:round; stroke-width:2; stroke-opacity:0.1; fill:none" points="211.325,490.598 2352.76,490.598 "/>
<polyline clip-path="url(#clip472)" style="stroke:#000000; stroke-linecap:round; stroke-linejoin:round; stroke-width:2; stroke-opacity:0.1; fill:none" points="211.325,265.853 2352.76,265.853 "/>
<polyline clip-path="url(#clip470)" style="stroke:#000000; stroke-linecap:round; stroke-linejoin:round; stroke-width:4; stroke-opacity:1; fill:none" points="211.325,1423.18 211.325,47.2441 "/>
<polyline clip-path="url(#clip470)" style="stroke:#000000; stroke-linecap:round; stroke-linejoin:round; stroke-width:4; stroke-opacity:1; fill:none" points="211.325,1389.58 230.222,1389.58 "/>
<polyline clip-path="url(#clip470)" style="stroke:#000000; stroke-linecap:round; stroke-linejoin:round; stroke-width:4; stroke-opacity:1; fill:none" points="211.325,1164.83 230.222,1164.83 "/>
<polyline clip-path="url(#clip470)" style="stroke:#000000; stroke-linecap:round; stroke-linejoin:round; stroke-width:4; stroke-opacity:1; fill:none" points="211.325,940.088 230.222,940.088 "/>
<polyline clip-path="url(#clip470)" style="stroke:#000000; stroke-linecap:round; stroke-linejoin:round; stroke-width:4; stroke-opacity:1; fill:none" points="211.325,715.343 230.222,715.343 "/>
<polyline clip-path="url(#clip470)" style="stroke:#000000; stroke-linecap:round; stroke-linejoin:round; stroke-width:4; stroke-opacity:1; fill:none" points="211.325,490.598 230.222,490.598 "/>
<polyline clip-path="url(#clip470)" style="stroke:#000000; stroke-linecap:round; stroke-linejoin:round; stroke-width:4; stroke-opacity:1; fill:none" points="211.325,265.853 230.222,265.853 "/>
<path clip-path="url(#clip470)" d="M114.26 1390.03 L143.936 1390.03 L143.936 1393.97 L114.26 1393.97 L114.26 1390.03 Z" fill="#000000" fill-rule="nonzero" fill-opacity="1" /><path clip-path="url(#clip470)" d="M168.195 1388.22 Q171.552 1388.94 173.427 1391.21 Q175.325 1393.48 175.325 1396.81 Q175.325 1401.93 171.806 1404.73 Q168.288 1407.53 161.806 1407.53 Q159.63 1407.53 157.315 1407.09 Q155.024 1406.67 152.57 1405.82 L152.57 1401.3 Q154.515 1402.44 156.829 1403.02 Q159.144 1403.59 161.667 1403.59 Q166.065 1403.59 168.357 1401.86 Q170.672 1400.12 170.672 1396.81 Q170.672 1393.76 168.519 1392.04 Q166.39 1390.31 162.57 1390.31 L158.542 1390.31 L158.542 1386.47 L162.755 1386.47 Q166.204 1386.47 168.033 1385.1 Q169.862 1383.71 169.862 1381.12 Q169.862 1378.46 167.964 1377.04 Q166.089 1375.61 162.57 1375.61 Q160.649 1375.61 158.45 1376.03 Q156.251 1376.44 153.612 1377.32 L153.612 1373.16 Q156.274 1372.41 158.589 1372.04 Q160.927 1371.67 162.987 1371.67 Q168.311 1371.67 171.413 1374.1 Q174.514 1376.51 174.514 1380.63 Q174.514 1383.5 172.871 1385.49 Q171.227 1387.46 168.195 1388.22 Z" fill="#000000" fill-rule="nonzero" fill-opacity="1" /><path clip-path="url(#clip470)" d="M115.209 1165.28 L144.885 1165.28 L144.885 1169.22 L115.209 1169.22 L115.209 1165.28 Z" fill="#000000" fill-rule="nonzero" fill-opacity="1" /><path clip-path="url(#clip470)" d="M159.005 1178.18 L175.325 1178.18 L175.325 1182.11 L153.38 1182.11 L153.38 1178.18 Q156.042 1175.42 160.626 1170.79 Q165.232 1166.14 166.413 1164.8 Q168.658 1162.28 169.538 1160.54 Q170.44 1158.78 170.44 1157.09 Q170.44 1154.34 168.496 1152.6 Q166.575 1150.86 163.473 1150.86 Q161.274 1150.86 158.82 1151.63 Q156.39 1152.39 153.612 1153.94 L153.612 1149.22 Q156.436 1148.09 158.89 1147.51 Q161.343 1146.93 163.38 1146.93 Q168.751 1146.93 171.945 1149.61 Q175.139 1152.3 175.139 1156.79 Q175.139 1158.92 174.329 1160.84 Q173.542 1162.74 171.436 1165.33 Q170.857 1166 167.755 1169.22 Q164.653 1172.41 159.005 1178.18 Z" fill="#000000" fill-rule="nonzero" fill-opacity="1" /><path clip-path="url(#clip470)" d="M114.839 940.54 L144.515 940.54 L144.515 944.475 L114.839 944.475 L114.839 940.54 Z" fill="#000000" fill-rule="nonzero" fill-opacity="1" /><path clip-path="url(#clip470)" d="M155.417 953.433 L163.056 953.433 L163.056 927.068 L154.746 928.734 L154.746 924.475 L163.01 922.808 L167.686 922.808 L167.686 953.433 L175.325 953.433 L175.325 957.368 L155.417 957.368 L155.417 953.433 Z" fill="#000000" fill-rule="nonzero" fill-opacity="1" /><path clip-path="url(#clip470)" d="M163.38 701.142 Q159.769 701.142 157.94 704.707 Q156.135 708.248 156.135 715.378 Q156.135 722.484 157.94 726.049 Q159.769 729.591 163.38 729.591 Q167.015 729.591 168.82 726.049 Q170.649 722.484 170.649 715.378 Q170.649 708.248 168.82 704.707 Q167.015 701.142 163.38 701.142 M163.38 697.438 Q169.19 697.438 172.246 702.045 Q175.325 706.628 175.325 715.378 Q175.325 724.105 172.246 728.711 Q169.19 733.295 163.38 733.295 Q157.57 733.295 154.491 728.711 Q151.436 724.105 151.436 715.378 Q151.436 706.628 154.491 702.045 Q157.57 697.438 163.38 697.438 Z" fill="#000000" fill-rule="nonzero" fill-opacity="1" /><path clip-path="url(#clip470)" d="M155.417 503.943 L163.056 503.943 L163.056 477.577 L154.746 479.244 L154.746 474.985 L163.01 473.318 L167.686 473.318 L167.686 503.943 L175.325 503.943 L175.325 507.878 L155.417 507.878 L155.417 503.943 Z" fill="#000000" fill-rule="nonzero" fill-opacity="1" /><path clip-path="url(#clip470)" d="M159.005 279.198 L175.325 279.198 L175.325 283.133 L153.38 283.133 L153.38 279.198 Q156.042 276.443 160.626 271.814 Q165.232 267.161 166.413 265.818 Q168.658 263.295 169.538 261.559 Q170.44 259.8 170.44 258.11 Q170.44 255.355 168.496 253.619 Q166.575 251.883 163.473 251.883 Q161.274 251.883 158.82 252.647 Q156.39 253.411 153.612 254.962 L153.612 250.24 Q156.436 249.105 158.89 248.527 Q161.343 247.948 163.38 247.948 Q168.751 247.948 171.945 250.633 Q175.139 253.318 175.139 257.809 Q175.139 259.939 174.329 261.86 Q173.542 263.758 171.436 266.351 Q170.857 267.022 167.755 270.24 Q164.653 273.434 159.005 279.198 Z" fill="#000000" fill-rule="nonzero" fill-opacity="1" /><path clip-path="url(#clip470)" d="M30.8561 720.775 Q31.307 720.775 32.3698 721.064 L57.5548 727.377 Q63.1586 728.762 67.0877 733.27 Q71.0168 737.747 71.0168 742.836 Q71.0168 745.895 69.3743 747.86 Q67.764 749.824 65.2842 749.824 Q63.0942 749.824 62.0314 748.665 Q61.0008 747.505 61.0008 746.121 Q61.0008 745.67 61.1296 745.187 Q61.2584 744.703 61.8059 744.188 Q62.3534 743.673 63.2874 743.673 Q64.8011 743.673 65.9927 744.993 Q66.5402 745.637 66.669 746.249 Q66.7978 746.829 66.7978 747.827 Q67.6996 747.441 68.3115 746.732 Q68.9234 746.024 69.1489 745.219 Q69.4065 744.414 69.4709 743.898 Q69.5675 743.351 69.5675 742.836 Q69.5675 738.713 65.413 735.557 Q64.157 734.623 62.9009 733.947 Q61.6771 733.238 60.1634 732.723 Q58.682 732.208 57.8768 731.982 Q57.0717 731.725 55.2359 731.274 Q58.2311 734.269 58.2311 737.94 Q58.2311 739.486 57.8124 740.871 Q57.3937 742.224 56.5242 743.415 Q55.6224 744.607 54.0443 745.315 Q52.4662 745.992 50.3728 745.992 Q48.1506 745.992 45.1233 745.122 Q42.0959 744.253 36.5243 742.159 Q33.4004 741.032 31.8867 741.032 Q31.146 741.032 30.6951 741.193 Q30.212 741.354 30.051 741.676 Q29.8577 741.998 29.8255 742.191 Q29.7933 742.352 29.7933 742.675 Q29.7933 744.575 31.7257 746.346 Q33.658 748.117 37.9736 749.341 Q38.7787 749.599 38.972 749.76 Q39.1652 749.921 39.1652 750.404 Q39.133 751.209 38.4889 751.209 Q38.2312 751.209 37.2329 750.919 Q36.2023 750.629 34.6886 749.953 Q33.1427 749.245 31.7579 748.278 Q30.3408 747.312 29.3424 745.798 Q28.344 744.253 28.344 742.481 Q28.344 740.066 29.9221 738.584 Q31.468 737.071 33.7546 737.071 Q34.6886 737.071 35.5259 737.328 Q36.3311 737.554 38.4889 738.391 Q47.1845 741.773 51.4356 741.773 Q52.4662 741.773 53.3358 741.612 Q54.1731 741.418 55.0105 741 Q55.8156 740.581 56.2987 739.744 Q56.7496 738.874 56.7496 737.683 Q56.7496 736.169 56.0411 734.752 Q55.3003 733.303 54.302 732.401 Q53.3036 731.467 52.4662 730.919 Q51.5967 730.34 51.1458 730.211 L39.294 727.248 L34.0123 725.927 Q31.146 725.316 30.4374 725.026 Q29.7611 724.639 29.4068 723.963 Q29.0526 723.287 29.0526 722.707 Q29.0526 721.902 29.5357 721.354 Q30.0187 720.775 30.8561 720.775 Z" fill="#000000" fill-rule="nonzero" fill-opacity="1" /><polyline clip-path="url(#clip472)" style="stroke:#009af9; stroke-linecap:round; stroke-linejoin:round; stroke-width:4; stroke-opacity:1; fill:none" points="271.931,1384.24 378.258,1316.23 484.586,1241.97 590.913,1168.17 697.24,1095.37 803.568,1025.48 909.895,964.574 1016.22,918.744 1122.55,889.171 1228.88,871.995 1335.2,861.391 1441.53,853.165 1547.86,846.609 1654.19,843.413 1760.51,845.766 1866.84,853.285 1973.17,862.158 2079.49,870.945 2185.82,885.061 2292.15,910.238 "/>
<polyline clip-path="url(#clip472)" style="stroke:#e26f46; stroke-linecap:round; stroke-linejoin:round; stroke-width:4; stroke-opacity:1; fill:none" points="271.931,1007.65 378.258,969.9 484.586,929.081 590.913,883.108 697.24,837.185 803.568,797.599 909.895,768.787 1016.22,752.107 1122.55,744.28 1228.88,737.114 1335.2,721.815 1441.53,696.368 1547.86,665.954 1654.19,637.128 1760.51,612.351 1866.84,586.067 1973.17,550.097 2079.49,505.584 2185.82,466.346 2292.15,445.608 "/>
<polyline clip-path="url(#clip472)" style="stroke:#3da44d; stroke-linecap:round; stroke-linejoin:round; stroke-width:4; stroke-opacity:1; fill:none" points="271.931,570.864 378.258,585.524 484.586,599.404 590.913,602.966 697.24,596.475 803.568,587.85 909.895,584.266 1016.22,586.801 1122.55,589.714 1228.88,584.024 1335.2,563.438 1441.53,528.336 1547.86,482.826 1654.19,429.461 1760.51,367.547 1866.84,296.764 1973.17,223.222 2079.49,158.469 2185.82,112.551 2292.15,86.1857 "/>
<path clip-path="url(#clip470)" d="M282.706 300.469 L596.131 300.469 L596.131 93.1086 L282.706 93.1086  Z" fill="#ffffff" fill-rule="evenodd" fill-opacity="1"/>
<polyline clip-path="url(#clip470)" style="stroke:#000000; stroke-linecap:round; stroke-linejoin:round; stroke-width:4; stroke-opacity:1; fill:none" points="282.706,300.469 596.131,300.469 596.131,93.1086 282.706,93.1086 282.706,300.469 "/>
<polyline clip-path="url(#clip470)" style="stroke:#009af9; stroke-linecap:round; stroke-linejoin:round; stroke-width:4; stroke-opacity:1; fill:none" points="306.499,144.949 449.261,144.949 "/>
<path clip-path="url(#clip470)" d="M485 130.747 Q481.388 130.747 479.56 134.312 Q477.754 137.854 477.754 144.983 Q477.754 152.09 479.56 155.655 Q481.388 159.196 485 159.196 Q488.634 159.196 490.439 155.655 Q492.268 152.09 492.268 144.983 Q492.268 137.854 490.439 134.312 Q488.634 130.747 485 130.747 M485 127.044 Q490.81 127.044 493.865 131.65 Q496.944 136.233 496.944 144.983 Q496.944 153.71 493.865 158.317 Q490.81 162.9 485 162.9 Q479.189 162.9 476.111 158.317 Q473.055 153.71 473.055 144.983 Q473.055 136.233 476.111 131.65 Q479.189 127.044 485 127.044 Z" fill="#000000" fill-rule="nonzero" fill-opacity="1" /><path clip-path="url(#clip470)" d="M505.161 156.349 L510.046 156.349 L510.046 162.229 L505.161 162.229 L505.161 156.349 Z" fill="#000000" fill-rule="nonzero" fill-opacity="1" /><path clip-path="url(#clip470)" d="M524.259 158.293 L540.578 158.293 L540.578 162.229 L518.634 162.229 L518.634 158.293 Q521.296 155.539 525.879 150.909 Q530.485 146.256 531.666 144.914 Q533.911 142.391 534.791 140.655 Q535.694 138.895 535.694 137.206 Q535.694 134.451 533.749 132.715 Q531.828 130.979 528.726 130.979 Q526.527 130.979 524.073 131.743 Q521.643 132.507 518.865 134.057 L518.865 129.335 Q521.689 128.201 524.143 127.622 Q526.597 127.044 528.634 127.044 Q534.004 127.044 537.198 129.729 Q540.393 132.414 540.393 136.905 Q540.393 139.034 539.583 140.956 Q538.796 142.854 536.689 145.446 Q536.11 146.118 533.009 149.335 Q529.907 152.53 524.259 158.293 Z" fill="#000000" fill-rule="nonzero" fill-opacity="1" /><path clip-path="url(#clip470)" d="M560.393 130.747 Q556.782 130.747 554.953 134.312 Q553.147 137.854 553.147 144.983 Q553.147 152.09 554.953 155.655 Q556.782 159.196 560.393 159.196 Q564.027 159.196 565.832 155.655 Q567.661 152.09 567.661 144.983 Q567.661 137.854 565.832 134.312 Q564.027 130.747 560.393 130.747 M560.393 127.044 Q566.203 127.044 569.258 131.65 Q572.337 136.233 572.337 144.983 Q572.337 153.71 569.258 158.317 Q566.203 162.9 560.393 162.9 Q554.582 162.9 551.504 158.317 Q548.448 153.71 548.448 144.983 Q548.448 136.233 551.504 131.65 Q554.582 127.044 560.393 127.044 Z" fill="#000000" fill-rule="nonzero" fill-opacity="1" /><polyline clip-path="url(#clip470)" style="stroke:#e26f46; stroke-linecap:round; stroke-linejoin:round; stroke-width:4; stroke-opacity:1; fill:none" points="306.499,196.789 449.261,196.789 "/>
<path clip-path="url(#clip470)" d="M485 182.587 Q481.388 182.587 479.56 186.152 Q477.754 189.694 477.754 196.823 Q477.754 203.93 479.56 207.495 Q481.388 211.036 485 211.036 Q488.634 211.036 490.439 207.495 Q492.268 203.93 492.268 196.823 Q492.268 189.694 490.439 186.152 Q488.634 182.587 485 182.587 M485 178.884 Q490.81 178.884 493.865 183.49 Q496.944 188.073 496.944 196.823 Q496.944 205.55 493.865 210.157 Q490.81 214.74 485 214.74 Q479.189 214.74 476.111 210.157 Q473.055 205.55 473.055 196.823 Q473.055 188.073 476.111 183.49 Q479.189 178.884 485 178.884 Z" fill="#000000" fill-rule="nonzero" fill-opacity="1" /><path clip-path="url(#clip470)" d="M505.161 208.189 L510.046 208.189 L510.046 214.069 L505.161 214.069 L505.161 208.189 Z" fill="#000000" fill-rule="nonzero" fill-opacity="1" /><path clip-path="url(#clip470)" d="M520.277 179.509 L538.633 179.509 L538.633 183.444 L524.559 183.444 L524.559 191.916 Q525.578 191.569 526.597 191.407 Q527.615 191.222 528.634 191.222 Q534.421 191.222 537.8 194.393 Q541.18 197.564 541.18 202.981 Q541.18 208.559 537.708 211.661 Q534.235 214.74 527.916 214.74 Q525.74 214.74 523.472 214.37 Q521.226 213.999 518.819 213.258 L518.819 208.559 Q520.902 209.694 523.124 210.249 Q525.347 210.805 527.823 210.805 Q531.828 210.805 534.166 208.698 Q536.504 206.592 536.504 202.981 Q536.504 199.37 534.166 197.263 Q531.828 195.157 527.823 195.157 Q525.948 195.157 524.073 195.573 Q522.222 195.99 520.277 196.87 L520.277 179.509 Z" fill="#000000" fill-rule="nonzero" fill-opacity="1" /><path clip-path="url(#clip470)" d="M560.393 182.587 Q556.782 182.587 554.953 186.152 Q553.147 189.694 553.147 196.823 Q553.147 203.93 554.953 207.495 Q556.782 211.036 560.393 211.036 Q564.027 211.036 565.832 207.495 Q567.661 203.93 567.661 196.823 Q567.661 189.694 565.832 186.152 Q564.027 182.587 560.393 182.587 M560.393 178.884 Q566.203 178.884 569.258 183.49 Q572.337 188.073 572.337 196.823 Q572.337 205.55 569.258 210.157 Q566.203 214.74 560.393 214.74 Q554.582 214.74 551.504 210.157 Q548.448 205.55 548.448 196.823 Q548.448 188.073 551.504 183.49 Q554.582 178.884 560.393 178.884 Z" fill="#000000" fill-rule="nonzero" fill-opacity="1" /><polyline clip-path="url(#clip470)" style="stroke:#3da44d; stroke-linecap:round; stroke-linejoin:round; stroke-width:4; stroke-opacity:1; fill:none" points="306.499,248.629 449.261,248.629 "/>
<path clip-path="url(#clip470)" d="M485 234.427 Q481.388 234.427 479.56 237.992 Q477.754 241.534 477.754 248.663 Q477.754 255.77 479.56 259.335 Q481.388 262.876 485 262.876 Q488.634 262.876 490.439 259.335 Q492.268 255.77 492.268 248.663 Q492.268 241.534 490.439 237.992 Q488.634 234.427 485 234.427 M485 230.724 Q490.81 230.724 493.865 235.33 Q496.944 239.913 496.944 248.663 Q496.944 257.39 493.865 261.997 Q490.81 266.58 485 266.58 Q479.189 266.58 476.111 261.997 Q473.055 257.39 473.055 248.663 Q473.055 239.913 476.111 235.33 Q479.189 230.724 485 230.724 Z" fill="#000000" fill-rule="nonzero" fill-opacity="1" /><path clip-path="url(#clip470)" d="M505.161 260.029 L510.046 260.029 L510.046 265.909 L505.161 265.909 L505.161 260.029 Z" fill="#000000" fill-rule="nonzero" fill-opacity="1" /><path clip-path="url(#clip470)" d="M530.231 249.497 Q526.897 249.497 524.976 251.279 Q523.078 253.061 523.078 256.186 Q523.078 259.311 524.976 261.094 Q526.897 262.876 530.231 262.876 Q533.564 262.876 535.485 261.094 Q537.407 259.288 537.407 256.186 Q537.407 253.061 535.485 251.279 Q533.587 249.497 530.231 249.497 M525.555 247.506 Q522.546 246.765 520.856 244.705 Q519.189 242.645 519.189 239.682 Q519.189 235.538 522.129 233.131 Q525.092 230.724 530.231 230.724 Q535.393 230.724 538.333 233.131 Q541.272 235.538 541.272 239.682 Q541.272 242.645 539.583 244.705 Q537.916 246.765 534.93 247.506 Q538.309 248.293 540.184 250.585 Q542.083 252.876 542.083 256.186 Q542.083 261.21 539.004 263.895 Q535.948 266.58 530.231 266.58 Q524.513 266.58 521.435 263.895 Q518.379 261.21 518.379 256.186 Q518.379 252.876 520.277 250.585 Q522.175 248.293 525.555 247.506 M523.842 240.122 Q523.842 242.807 525.509 244.312 Q527.198 245.816 530.231 245.816 Q533.24 245.816 534.93 244.312 Q536.643 242.807 536.643 240.122 Q536.643 237.437 534.93 235.932 Q533.24 234.427 530.231 234.427 Q527.198 234.427 525.509 235.932 Q523.842 237.437 523.842 240.122 Z" fill="#000000" fill-rule="nonzero" fill-opacity="1" /><path clip-path="url(#clip470)" d="M560.393 234.427 Q556.782 234.427 554.953 237.992 Q553.147 241.534 553.147 248.663 Q553.147 255.77 554.953 259.335 Q556.782 262.876 560.393 262.876 Q564.027 262.876 565.832 259.335 Q567.661 255.77 567.661 248.663 Q567.661 241.534 565.832 237.992 Q564.027 234.427 560.393 234.427 M560.393 230.724 Q566.203 230.724 569.258 235.33 Q572.337 239.913 572.337 248.663 Q572.337 257.39 569.258 261.997 Q566.203 266.58 560.393 266.58 Q554.582 266.58 551.504 261.997 Q548.448 257.39 548.448 248.663 Q548.448 239.913 551.504 235.33 Q554.582 230.724 560.393 230.724 Z" fill="#000000" fill-rule="nonzero" fill-opacity="1" /></svg>
