<?xml version="1.0" encoding="utf-8"?>
<svg xmlns="http://www.w3.org/2000/svg" xmlns:xlink="http://www.w3.org/1999/xlink" width="600" height="400" viewBox="0 0 2400 1600">
<defs>
  <clipPath id="clip080">
    <rect x="0" y="0" width="2400" height="1600"/>
  </clipPath>
</defs>
<path clip-path="url(#clip080)" d="M0 1600 L2400 1600 L2400 0 L0 0  Z" fill="#ffffff" fill-rule="evenodd" fill-opacity="1"/>
<defs>
  <clipPath id="clip081">
    <rect x="480" y="0" width="1681" height="1600"/>
  </clipPath>
</defs>
<defs>
  <clipPath id="clip082">
    <rect x="212" y="47" width="2141" height="1377"/>
  </clipPath>
</defs>
<path clip-path="url(#clip080)" d="M210.746 1423.18 L2352.76 1423.18 L2352.76 47.2441 L210.746 47.2441  Z" fill="#ffffff" fill-rule="evenodd" fill-opacity="1"/>
<defs>
  <clipPath id="clip083">
    <rect x="210" y="47" width="2143" height="1377"/>
  </clipPath>
</defs>
<polyline clip-path="url(#clip083)" style="stroke:#000000; stroke-linecap:round; stroke-linejoin:round; stroke-width:2; stroke-opacity:0.1; fill:none" points="271.369,1423.18 271.369,47.2441 "/>
<polyline clip-path="url(#clip083)" style="stroke:#000000; stroke-linecap:round; stroke-linejoin:round; stroke-width:2; stroke-opacity:0.1; fill:none" points="776.56,1423.18 776.56,47.2441 "/>
<polyline clip-path="url(#clip083)" style="stroke:#000000; stroke-linecap:round; stroke-linejoin:round; stroke-width:2; stroke-opacity:0.1; fill:none" points="1281.75,1423.18 1281.75,47.2441 "/>
<polyline clip-path="url(#clip083)" style="stroke:#000000; stroke-linecap:round; stroke-linejoin:round; stroke-width:2; stroke-opacity:0.1; fill:none" points="1786.94,1423.18 1786.94,47.2441 "/>
<polyline clip-path="url(#clip083)" style="stroke:#000000; stroke-linecap:round; stroke-linejoin:round; stroke-width:2; stroke-opacity:0.1; fill:none" points="2292.13,1423.18 2292.13,47.2441 "/>
<polyline clip-path="url(#clip080)" style="stroke:#000000; stroke-linecap:round; stroke-linejoin:round; stroke-width:4; stroke-opacity:1; fill:none" points="210.746,1423.18 2352.76,1423.18 "/>
<polyline clip-path="url(#clip080)" style="stroke:#000000; stroke-linecap:round; stroke-linejoin:round; stroke-width:4; stroke-opacity:1; fill:none" points="271.369,1423.18 271.369,1404.28 "/>
<polyline clip-path="url(#clip080)" style="stroke:#000000; stroke-linecap:round; stroke-linejoin:round; stroke-width:4; stroke-opacity:1; fill:none" points="776.56,1423.18 776.56,1404.28 "/>
<polyline clip-path="url(#clip080)" style="stroke:#000000; stroke-linecap:round; stroke-linejoin:round; stroke-width:4; stroke-opacity:1; fill:none" points="1281.75,1423.18 1281.75,1404.28 "/>
<polyline clip-path="url(#clip080)" style="stroke:#000000; stroke-linecap:round; stroke-linejoin:round; stroke-width:4; stroke-opacity:1; fill:none" points="1786.94,1423.18 1786.94,1404.28 "/>
<polyline clip-path="url(#clip080)" style="stroke:#000000; stroke-linecap:round; stroke-linejoin:round; stroke-width:4; stroke-opacity:1; fill:none" points="2292.13,1423.18 2292.13,1404.28 "/>
<path clip-path="url(#clip080)" d="M241.311 1468.75 L270.987 1468.75 L270.987 1472.69 L241.311 1472.69 L241.311 1468.75 Z" fill="#000000" fill-rule="nonzero" fill-opacity="1" /><path clip-path="url(#clip080)" d="M285.107 1481.64 L301.427 1481.64 L301.427 1485.58 L279.482 1485.58 L279.482 1481.64 Q282.144 1478.89 286.728 1474.26 Q291.334 1469.61 292.515 1468.27 Q294.76 1465.74 295.64 1464.01 Q296.542 1462.25 296.542 1460.56 Q296.542 1457.8 294.598 1456.07 Q292.677 1454.33 289.575 1454.33 Q287.376 1454.33 284.922 1455.09 Q282.491 1455.86 279.714 1457.41 L279.714 1452.69 Q282.538 1451.55 284.991 1450.97 Q287.445 1450.39 289.482 1450.39 Q294.853 1450.39 298.047 1453.08 Q301.241 1455.77 301.241 1460.26 Q301.241 1462.39 300.431 1464.31 Q299.644 1466.2 297.538 1468.8 Q296.959 1469.47 293.857 1472.69 Q290.755 1475.88 285.107 1481.64 Z" fill="#000000" fill-rule="nonzero" fill-opacity="1" /><path clip-path="url(#clip080)" d="M746.317 1468.75 L775.993 1468.75 L775.993 1472.69 L746.317 1472.69 L746.317 1468.75 Z" fill="#000000" fill-rule="nonzero" fill-opacity="1" /><path clip-path="url(#clip080)" d="M786.895 1481.64 L794.534 1481.64 L794.534 1455.28 L786.224 1456.95 L786.224 1452.69 L794.488 1451.02 L799.164 1451.02 L799.164 1481.64 L806.803 1481.64 L806.803 1485.58 L786.895 1485.58 L786.895 1481.64 Z" fill="#000000" fill-rule="nonzero" fill-opacity="1" /><path clip-path="url(#clip080)" d="M1281.75 1454.1 Q1278.14 1454.1 1276.31 1457.66 Q1274.51 1461.2 1274.51 1468.33 Q1274.51 1475.44 1276.31 1479.01 Q1278.14 1482.55 1281.75 1482.55 Q1285.39 1482.55 1287.19 1479.01 Q1289.02 1475.44 1289.02 1468.33 Q1289.02 1461.2 1287.19 1457.66 Q1285.39 1454.1 1281.75 1454.1 M1281.75 1450.39 Q1287.56 1450.39 1290.62 1455 Q1293.7 1459.58 1293.7 1468.33 Q1293.7 1477.06 1290.62 1481.67 Q1287.56 1486.25 1281.75 1486.25 Q1275.94 1486.25 1272.86 1481.67 Q1269.81 1477.06 1269.81 1468.33 Q1269.81 1459.58 1272.86 1455 Q1275.94 1450.39 1281.75 1450.39 Z" fill="#000000" fill-rule="nonzero" fill-opacity="1" /><path clip-path="url(#clip080)" d="M1777.32 1481.64 L1784.96 1481.64 L1784.96 1455.28 L1776.65 1456.95 L1776.65 1452.69 L1784.92 1451.02 L1789.59 1451.02 L1789.59 1481.64 L1797.23 1481.64 L1797.23 1485.58 L1777.32 1485.58 L1777.32 1481.64 Z" fill="#000000" fill-rule="nonzero" fill-opacity="1" /><path clip-path="url(#clip080)" d="M2286.79 1481.64 L2303.11 1481.64 L2303.11 1485.58 L2281.16 1485.58 L2281.16 1481.64 Q2283.82 1478.89 2288.41 1474.26 Q2293.01 1469.61 2294.19 1468.27 Q2296.44 1465.74 2297.32 1464.01 Q2298.22 1462.25 2298.22 1460.56 Q2298.22 1457.8 2296.28 1456.07 Q2294.36 1454.33 2291.25 1454.33 Q2289.05 1454.33 2286.6 1455.09 Q2284.17 1455.86 2281.39 1457.41 L2281.39 1452.69 Q2284.22 1451.55 2286.67 1450.97 Q2289.12 1450.39 2291.16 1450.39 Q2296.53 1450.39 2299.73 1453.08 Q2302.92 1455.77 2302.92 1460.26 Q2302.92 1462.39 2302.11 1464.31 Q2301.32 1466.2 2299.22 1468.8 Q2298.64 1469.47 2295.54 1472.69 Q2292.43 1475.88 2286.79 1481.64 Z" fill="#000000" fill-rule="nonzero" fill-opacity="1" /><path clip-path="url(#clip080)" d="M1295.92 1528.8 Q1295.92 1530.61 1294.8 1531.64 Q1293.67 1532.64 1292.38 1532.64 Q1291.16 1532.64 1290.51 1531.93 Q1289.87 1531.22 1289.87 1530.32 Q1289.87 1529.09 1290.77 1528.03 Q1291.67 1526.97 1293.03 1526.74 Q1291.71 1525.91 1289.74 1525.91 Q1288.45 1525.91 1287.33 1526.58 Q1286.23 1527.26 1285.55 1528.13 Q1284.91 1529 1284.33 1530.25 Q1283.78 1531.48 1283.56 1532.22 Q1283.36 1532.93 1283.2 1533.7 L1280.95 1542.72 Q1279.85 1547 1279.85 1548.51 Q1279.85 1550.38 1280.76 1551.64 Q1281.66 1552.86 1283.46 1552.86 Q1284.17 1552.86 1284.97 1552.67 Q1285.78 1552.44 1286.81 1551.86 Q1287.87 1551.25 1288.81 1550.35 Q1289.77 1549.42 1290.71 1547.84 Q1291.64 1546.26 1292.25 1544.23 Q1292.45 1543.52 1293.09 1543.52 Q1293.9 1543.52 1293.9 1544.17 Q1293.9 1544.71 1293.44 1545.87 Q1293.03 1547 1292.09 1548.48 Q1291.19 1549.93 1290 1551.25 Q1288.81 1552.54 1287.04 1553.44 Q1285.26 1554.34 1283.33 1554.34 Q1280.56 1554.34 1278.73 1552.86 Q1276.89 1551.38 1276.21 1549.32 Q1276.05 1549.61 1275.83 1550 Q1275.6 1550.38 1274.93 1551.25 Q1274.28 1552.09 1273.54 1552.73 Q1272.8 1553.34 1271.64 1553.83 Q1270.51 1554.34 1269.29 1554.34 Q1267.74 1554.34 1266.36 1553.89 Q1265.01 1553.44 1264.04 1552.41 Q1263.07 1551.38 1263.07 1549.96 Q1263.07 1548.38 1264.14 1547.29 Q1265.23 1546.16 1266.71 1546.16 Q1267.65 1546.16 1268.39 1546.71 Q1269.16 1547.26 1269.16 1548.45 Q1269.16 1549.77 1268.26 1550.77 Q1267.36 1551.77 1266.07 1552.02 Q1267.39 1552.86 1269.35 1552.86 Q1271.48 1552.86 1273.15 1550.99 Q1274.83 1549.13 1275.63 1546 Q1277.63 1538.5 1278.4 1535.15 Q1279.18 1531.77 1279.18 1530.32 Q1279.18 1528.96 1278.82 1528.03 Q1278.47 1527.1 1277.86 1526.68 Q1277.28 1526.23 1276.73 1526.07 Q1276.21 1525.91 1275.63 1525.91 Q1274.67 1525.91 1273.57 1526.29 Q1272.51 1526.68 1271.22 1527.58 Q1269.97 1528.45 1268.77 1530.25 Q1267.58 1532.06 1266.78 1534.54 Q1266.62 1535.28 1265.91 1535.28 Q1265.14 1535.24 1265.14 1534.6 Q1265.14 1534.05 1265.55 1532.93 Q1266.01 1531.77 1266.91 1530.32 Q1267.84 1528.87 1269.03 1527.58 Q1270.26 1526.26 1272.03 1525.36 Q1273.83 1524.46 1275.76 1524.46 Q1276.63 1524.46 1277.47 1524.65 Q1278.34 1524.81 1279.37 1525.29 Q1280.43 1525.78 1281.37 1526.84 Q1282.3 1527.9 1282.88 1529.45 Q1283.27 1528.71 1283.78 1528 Q1284.33 1527.29 1285.17 1526.42 Q1286.04 1525.52 1287.23 1525 Q1288.45 1524.46 1289.81 1524.46 Q1291.13 1524.46 1292.41 1524.81 Q1293.7 1525.13 1294.8 1526.19 Q1295.92 1527.23 1295.92 1528.8 Z" fill="#000000" fill-rule="nonzero" fill-opacity="1" /><polyline clip-path="url(#clip083)" style="stroke:#000000; stroke-linecap:round; stroke-linejoin:round; stroke-width:2; stroke-opacity:0.1; fill:none" points="210.746,1257.51 2352.76,1257.51 "/>
<polyline clip-path="url(#clip083)" style="stroke:#000000; stroke-linecap:round; stroke-linejoin:round; stroke-width:2; stroke-opacity:0.1; fill:none" points="210.746,995.467 2352.76,995.467 "/>
<polyline clip-path="url(#clip083)" style="stroke:#000000; stroke-linecap:round; stroke-linejoin:round; stroke-width:2; stroke-opacity:0.1; fill:none" points="210.746,733.425 2352.76,733.425 "/>
<polyline clip-path="url(#clip083)" style="stroke:#000000; stroke-linecap:round; stroke-linejoin:round; stroke-width:2; stroke-opacity:0.1; fill:none" points="210.746,471.382 2352.76,471.382 "/>
<polyline clip-path="url(#clip083)" style="stroke:#000000; stroke-linecap:round; stroke-linejoin:round; stroke-width:2; stroke-opacity:0.1; fill:none" points="210.746,209.34 2352.76,209.34 "/>
<polyline clip-path="url(#clip080)" style="stroke:#000000; stroke-linecap:round; stroke-linejoin:round; stroke-width:4; stroke-opacity:1; fill:none" points="210.746,1423.18 210.746,47.2441 "/>
<polyline clip-path="url(#clip080)" style="stroke:#000000; stroke-linecap:round; stroke-linejoin:round; stroke-width:4; stroke-opacity:1; fill:none" points="210.746,1257.51 229.644,1257.51 "/>
<polyline clip-path="url(#clip080)" style="stroke:#000000; stroke-linecap:round; stroke-linejoin:round; stroke-width:4; stroke-opacity:1; fill:none" points="210.746,995.467 229.644,995.467 "/>
<polyline clip-path="url(#clip080)" style="stroke:#000000; stroke-linecap:round; stroke-linejoin:round; stroke-width:4; stroke-opacity:1; fill:none" points="210.746,733.425 229.644,733.425 "/>
<polyline clip-path="url(#clip080)" style="stroke:#000000; stroke-linecap:round; stroke-linejoin:round; stroke-width:4; stroke-opacity:1; fill:none" points="210.746,471.382 229.644,471.382 "/>
<polyline clip-path="url(#clip080)" style="stroke:#000000; stroke-linecap:round; stroke-linejoin:round; stroke-width:4; stroke-opacity:1; fill:none" points="210.746,209.34 229.644,209.34 "/>
<path clip-path="url(#clip080)" d="M114.631 1257.96 L144.306 1257.96 L144.306 1261.9 L114.631 1261.9 L114.631 1257.96 Z" fill="#000000" fill-rule="nonzero" fill-opacity="1" /><path clip-path="url(#clip080)" d="M158.427 1270.85 L174.746 1270.85 L174.746 1274.79 L152.802 1274.79 L152.802 1270.85 Q155.464 1268.1 160.047 1263.47 Q164.653 1258.82 165.834 1257.47 Q168.079 1254.95 168.959 1253.22 Q169.862 1251.46 169.862 1249.77 Q169.862 1247.01 167.917 1245.28 Q165.996 1243.54 162.894 1243.54 Q160.695 1243.54 158.241 1244.3 Q155.811 1245.07 153.033 1246.62 L153.033 1241.9 Q155.857 1240.76 158.311 1240.18 Q160.765 1239.6 162.802 1239.6 Q168.172 1239.6 171.366 1242.29 Q174.561 1244.97 174.561 1249.47 Q174.561 1251.6 173.751 1253.52 Q172.964 1255.41 170.857 1258.01 Q170.278 1258.68 167.177 1261.9 Q164.075 1265.09 158.427 1270.85 Z" fill="#000000" fill-rule="nonzero" fill-opacity="1" /><path clip-path="url(#clip080)" d="M114.26 995.919 L143.936 995.919 L143.936 999.854 L114.26 999.854 L114.26 995.919 Z" fill="#000000" fill-rule="nonzero" fill-opacity="1" /><path clip-path="url(#clip080)" d="M154.839 1008.81 L162.477 1008.81 L162.477 982.446 L154.167 984.113 L154.167 979.854 L162.431 978.187 L167.107 978.187 L167.107 1008.81 L174.746 1008.81 L174.746 1012.75 L154.839 1012.75 L154.839 1008.81 Z" fill="#000000" fill-rule="nonzero" fill-opacity="1" /><path clip-path="url(#clip080)" d="M162.802 719.223 Q159.19 719.223 157.362 722.788 Q155.556 726.33 155.556 733.459 Q155.556 740.566 157.362 744.131 Q159.19 747.672 162.802 747.672 Q166.436 747.672 168.241 744.131 Q170.07 740.566 170.07 733.459 Q170.07 726.33 168.241 722.788 Q166.436 719.223 162.802 719.223 M162.802 715.52 Q168.612 715.52 171.667 720.126 Q174.746 724.71 174.746 733.459 Q174.746 742.186 171.667 746.793 Q168.612 751.376 162.802 751.376 Q156.991 751.376 153.913 746.793 Q150.857 742.186 150.857 733.459 Q150.857 724.71 153.913 720.126 Q156.991 715.52 162.802 715.52 Z" fill="#000000" fill-rule="nonzero" fill-opacity="1" /><path clip-path="url(#clip080)" d="M154.839 484.727 L162.477 484.727 L162.477 458.362 L154.167 460.028 L154.167 455.769 L162.431 454.102 L167.107 454.102 L167.107 484.727 L174.746 484.727 L174.746 488.662 L154.839 488.662 L154.839 484.727 Z" fill="#000000" fill-rule="nonzero" fill-opacity="1" /><path clip-path="url(#clip080)" d="M158.427 222.685 L174.746 222.685 L174.746 226.62 L152.802 226.62 L152.802 222.685 Q155.464 219.93 160.047 215.301 Q164.653 210.648 165.834 209.305 Q168.079 206.782 168.959 205.046 Q169.862 203.287 169.862 201.597 Q169.862 198.842 167.917 197.106 Q165.996 195.37 162.894 195.37 Q160.695 195.37 158.241 196.134 Q155.811 196.898 153.033 198.449 L153.033 193.727 Q155.857 192.592 158.311 192.014 Q160.765 191.435 162.802 191.435 Q168.172 191.435 171.366 194.12 Q174.561 196.805 174.561 201.296 Q174.561 203.426 173.751 205.347 Q172.964 207.245 170.857 209.838 Q170.278 210.509 167.177 213.726 Q164.075 216.921 158.427 222.685 Z" fill="#000000" fill-rule="nonzero" fill-opacity="1" /><path clip-path="url(#clip080)" d="M30.8561 720.775 Q31.307 720.775 32.3698 721.064 L57.5548 727.377 Q63.1586 728.762 67.0877 733.27 Q71.0168 737.747 71.0168 742.836 Q71.0168 745.895 69.3743 747.86 Q67.764 749.824 65.2842 749.824 Q63.0942 749.824 62.0314 748.665 Q61.0008 747.505 61.0008 746.121 Q61.0008 745.67 61.1296 745.187 Q61.2584 744.703 61.8059 744.188 Q62.3534 743.673 63.2874 743.673 Q64.8011 743.673 65.9927 744.993 Q66.5402 745.637 66.669 746.249 Q66.7978 746.829 66.7978 747.827 Q67.6996 747.441 68.3115 746.732 Q68.9234 746.024 69.1489 745.219 Q69.4065 744.414 69.4709 743.898 Q69.5675 743.351 69.5675 742.836 Q69.5675 738.713 65.413 735.557 Q64.157 734.623 62.9009 733.947 Q61.6771 733.238 60.1634 732.723 Q58.682 732.208 57.8768 731.982 Q57.0717 731.725 55.2359 731.274 Q58.2311 734.269 58.2311 737.94 Q58.2311 739.486 57.8124 740.871 Q57.3937 742.224 56.5242 743.415 Q55.6224 744.607 54.0443 745.315 Q52.4662 745.992 50.3728 745.992 Q48.1506 745.992 45.1233 745.122 Q42.0959 744.253 36.5243 742.159 Q33.4004 741.032 31.8867 741.032 Q31.146 741.032 30.6951 741.193 Q30.212 741.354 30.051 741.676 Q29.8577 741.998 29.8255 742.191 Q29.7933 742.352 29.7933 742.675 Q29.7933 744.575 31.7257 746.346 Q33.658 748.117 37.9736 749.341 Q38.7787 749.599 38.972 749.76 Q39.1652 749.921 39.1652 750.404 Q39.133 751.209 38.4889 751.209 Q38.2312 751.209 37.2329 750.919 Q36.2023 750.629 34.6886 749.953 Q33.1427 749.245 31.7579 748.278 Q30.3408 747.312 29.3424 745.798 Q28.344 744.253 28.344 742.481 Q28.344 740.066 29.9221 738.584 Q31.468 737.071 33.7546 737.071 Q34.6886 737.071 35.5259 737.328 Q36.3311 737.554 38.4889 738.391 Q47.1845 741.773 51.4356 741.773 Q52.4662 741.773 53.3358 741.612 Q54.1731 741.418 55.0105 741 Q55.8156 740.581 56.2987 739.744 Q56.7496 738.874 56.7496 737.683 Q56.7496 736.169 56.0411 734.752 Q55.3003 733.303 54.302 732.401 Q53.3036 731.467 52.4662 730.919 Q51.5967 730.34 51.1458 730.211 L39.294 727.248 L34.0123 725.927 Q31.146 725.316 30.4374 725.026 Q29.7611 724.639 29.4068 723.963 Q29.0526 723.287 29.0526 722.707 Q29.0526 721.902 29.5357 721.354 Q30.0187 720.775 30.8561 720.775 Z" fill="#000000" fill-rule="nonzero" fill-opacity="1" /><polyline clip-path="url(#clip083)" style="stroke:#009af9; stroke-linecap:round; stroke-linejoin:round; stroke-width:4; stroke-opacity:1; fill:none" points="271.369,1384.24 377.725,1347.53 484.081,1330.54 590.437,1307.41 696.793,1265.68 803.149,1203.85 909.505,1127.26 1015.86,1047.65 1122.22,979.147 1228.57,930.417 1334.93,900.972 1441.28,886.135 1547.64,883.787 1654,894.632 1760.35,917.588 1866.71,946.127 1973.06,972.702 2079.42,991.972 2185.78,996.091 2292.13,979.458 "/>
<polyline clip-path="url(#clip083)" style="stroke:#e26f46; stroke-linecap:round; stroke-linejoin:round; stroke-width:4; stroke-opacity:1; fill:none" points="271.369,861.01 377.725,843.606 484.081,838.7 590.437,844.115 696.793,853.11 803.149,855.602 909.505,844.381 1015.86,820.006 1122.22,788.666 1228.57,755.346 1334.93,722.727 1441.28,694.841 1547.64,676.636 1654,670.588 1760.35,673.045 1866.71,674.907 1973.06,670.798 2079.42,659.347 2185.78,634.955 2292.13,594.015 "/>
<polyline clip-path="url(#clip083)" style="stroke:#3da44d; stroke-linecap:round; stroke-linejoin:round; stroke-width:4; stroke-opacity:1; fill:none" points="271.369,587.796 377.725,565.709 484.081,549.344 590.437,550.839 696.793,567.849 803.149,587.411 909.505,599.745 1015.86,604.077 1122.22,601.898 1228.57,588.488 1334.93,556.986 1441.28,507.985 1547.64,448.145 1654,383.683 1760.35,318.443 1866.71,255.374 1973.06,197.996 2079.42,149.608 2185.78,112.448 2292.13,86.1857 "/>
<path clip-path="url(#clip080)" d="M282.146 300.469 L595.629 300.469 L595.629 93.1086 L282.146 93.1086  Z" fill="#ffffff" fill-rule="evenodd" fill-opacity="1"/>
<polyline clip-path="url(#clip080)" style="stroke:#000000; stroke-linecap:round; stroke-linejoin:round; stroke-width:4; stroke-opacity:1; fill:none" points="282.146,300.469 595.629,300.469 595.629,93.1086 282.146,93.1086 282.146,300.469 "/>
<polyline clip-path="url(#clip080)" style="stroke:#009af9; stroke-linecap:round; stroke-linejoin:round; stroke-width:4; stroke-opacity:1; fill:none" points="305.946,144.949 448.747,144.949 "/>
<path clip-path="url(#clip080)" d="M484.492 130.747 Q480.88 130.747 479.052 134.312 Q477.246 137.854 477.246 144.983 Q477.246 152.09 479.052 155.655 Q480.88 159.196 484.492 159.196 Q488.126 159.196 489.931 155.655 Q491.76 152.09 491.76 144.983 Q491.76 137.854 489.931 134.312 Q488.126 130.747 484.492 130.747 M484.492 127.044 Q490.302 127.044 493.357 131.65 Q496.436 136.233 496.436 144.983 Q496.436 153.71 493.357 158.317 Q490.302 162.9 484.492 162.9 Q478.681 162.9 475.603 158.317 Q472.547 153.71 472.547 144.983 Q472.547 136.233 475.603 131.65 Q478.681 127.044 484.492 127.044 Z" fill="#000000" fill-rule="nonzero" fill-opacity="1" /><path clip-path="url(#clip080)" d="M504.653 156.349 L509.538 156.349 L509.538 162.229 L504.653 162.229 L504.653 156.349 Z" fill="#000000" fill-rule="nonzero" fill-opacity="1" /><path clip-path="url(#clip080)" d="M523.751 158.293 L540.07 158.293 L540.07 162.229 L518.126 162.229 L518.126 158.293 Q520.788 155.539 525.371 150.909 Q529.977 146.256 531.158 144.914 Q533.403 142.391 534.283 140.655 Q535.186 138.895 535.186 137.206 Q535.186 134.451 533.241 132.715 Q531.32 130.979 528.218 130.979 Q526.019 130.979 523.565 131.743 Q521.135 132.507 518.357 134.057 L518.357 129.335 Q521.181 128.201 523.635 127.622 Q526.089 127.044 528.126 127.044 Q533.496 127.044 536.69 129.729 Q539.885 132.414 539.885 136.905 Q539.885 139.034 539.075 140.956 Q538.288 142.854 536.181 145.446 Q535.602 146.118 532.501 149.335 Q529.399 152.53 523.751 158.293 Z" fill="#000000" fill-rule="nonzero" fill-opacity="1" /><path clip-path="url(#clip080)" d="M559.885 130.747 Q556.274 130.747 554.445 134.312 Q552.639 137.854 552.639 144.983 Q552.639 152.09 554.445 155.655 Q556.274 159.196 559.885 159.196 Q563.519 159.196 565.324 155.655 Q567.153 152.09 567.153 144.983 Q567.153 137.854 565.324 134.312 Q563.519 130.747 559.885 130.747 M559.885 127.044 Q565.695 127.044 568.75 131.65 Q571.829 136.233 571.829 144.983 Q571.829 153.71 568.75 158.317 Q565.695 162.9 559.885 162.9 Q554.075 162.9 550.996 158.317 Q547.94 153.71 547.94 144.983 Q547.94 136.233 550.996 131.65 Q554.075 127.044 559.885 127.044 Z" fill="#000000" fill-rule="nonzero" fill-opacity="1" /><polyline clip-path="url(#clip080)" style="stroke:#e26f46; stroke-linecap:round; stroke-linejoin:round; stroke-width:4; stroke-opacity:1; fill:none" points="305.946,196.789 448.747,196.789 "/>
<path clip-path="url(#clip080)" d="M484.492 182.587 Q480.88 182.587 479.052 186.152 Q477.246 189.694 477.246 196.823 Q477.246 203.93 479.052 207.495 Q480.88 211.036 484.492 211.036 Q488.126 211.036 489.931 207.495 Q491.76 203.93 491.76 196.823 Q491.76 189.694 489.931 186.152 Q488.126 182.587 484.492 182.587 M484.492 178.884 Q490.302 178.884 493.357 183.49 Q496.436 188.073 496.436 196.823 Q496.436 205.55 493.357 210.157 Q490.302 214.74 484.492 214.74 Q478.681 214.74 475.603 210.157 Q472.547 205.55 472.547 196.823 Q472.547 188.073 475.603 183.49 Q478.681 178.884 484.492 178.884 Z" fill="#000000" fill-rule="nonzero" fill-opacity="1" /><path clip-path="url(#clip080)" d="M504.653 208.189 L509.538 208.189 L509.538 214.069 L504.653 214.069 L504.653 208.189 Z" fill="#000000" fill-rule="nonzero" fill-opacity="1" /><path clip-path="url(#clip080)" d="M519.769 179.509 L538.126 179.509 L538.126 183.444 L524.052 183.444 L524.052 191.916 Q525.07 191.569 526.089 191.407 Q527.107 191.222 528.126 191.222 Q533.913 191.222 537.292 194.393 Q540.672 197.564 540.672 202.981 Q540.672 208.559 537.2 211.661 Q533.727 214.74 527.408 214.74 Q525.232 214.74 522.964 214.37 Q520.718 213.999 518.311 213.258 L518.311 208.559 Q520.394 209.694 522.616 210.249 Q524.839 210.805 527.315 210.805 Q531.32 210.805 533.658 208.698 Q535.996 206.592 535.996 202.981 Q535.996 199.37 533.658 197.263 Q531.32 195.157 527.315 195.157 Q525.44 195.157 523.565 195.573 Q521.714 195.99 519.769 196.87 L519.769 179.509 Z" fill="#000000" fill-rule="nonzero" fill-opacity="1" /><path clip-path="url(#clip080)" d="M559.885 182.587 Q556.274 182.587 554.445 186.152 Q552.639 189.694 552.639 196.823 Q552.639 203.93 554.445 207.495 Q556.274 211.036 559.885 211.036 Q563.519 211.036 565.324 207.495 Q567.153 203.93 567.153 196.823 Q567.153 189.694 565.324 186.152 Q563.519 182.587 559.885 182.587 M559.885 178.884 Q565.695 178.884 568.75 183.49 Q571.829 188.073 571.829 196.823 Q571.829 205.55 568.75 210.157 Q565.695 214.74 559.885 214.74 Q554.075 214.74 550.996 210.157 Q547.94 205.55 547.94 196.823 Q547.94 188.073 550.996 183.49 Q554.075 178.884 559.885 178.884 Z" fill="#000000" fill-rule="nonzero" fill-opacity="1" /><polyline clip-path="url(#clip080)" style="stroke:#3da44d; stroke-linecap:round; stroke-linejoin:round; stroke-width:4; stroke-opacity:1; fill:none" points="305.946,248.629 448.747,248.629 "/>
<path clip-path="url(#clip080)" d="M484.492 234.427 Q480.88 234.427 479.052 237.992 Q477.246 241.534 477.246 248.663 Q477.246 255.77 479.052 259.335 Q480.88 262.876 484.492 262.876 Q488.126 262.876 489.931 259.335 Q491.76 255.77 491.76 248.663 Q491.76 241.534 489.931 237.992 Q488.126 234.427 484.492 234.427 M484.492 230.724 Q490.302 230.724 493.357 235.33 Q496.436 239.913 496.436 248.663 Q496.436 257.39 493.357 261.997 Q490.302 266.58 484.492 266.58 Q478.681 266.58 475.603 261.997 Q472.547 257.39 472.547 248.663 Q472.547 239.913 475.603 235.33 Q478.681 230.724 484.492 230.724 Z" fill="#000000" fill-rule="nonzero" fill-opacity="1" /><path clip-path="url(#clip080)" d="M504.653 260.029 L509.538 260.029 L509.538 265.909 L504.653 265.909 L504.653 260.029 Z" fill="#000000" fill-rule="nonzero" fill-opacity="1" /><path clip-path="url(#clip080)" d="M529.723 249.497 Q526.389 249.497 524.468 251.279 Q522.57 253.061 522.57 256.186 Q522.57 259.311 524.468 261.094 Q526.389 262.876 529.723 262.876 Q533.056 262.876 534.977 261.094 Q536.899 259.288 536.899 256.186 Q536.899 253.061 534.977 251.279 Q533.079 249.497 529.723 249.497 M525.047 247.506 Q522.038 246.765 520.348 244.705 Q518.681 242.645 518.681 239.682 Q518.681 235.538 521.621 233.131 Q524.584 230.724 529.723 230.724 Q534.885 230.724 537.825 233.131 Q540.764 235.538 540.764 239.682 Q540.764 242.645 539.075 244.705 Q537.408 246.765 534.422 247.506 Q537.801 248.293 539.676 250.585 Q541.575 252.876 541.575 256.186 Q541.575 261.21 538.496 263.895 Q535.44 266.58 529.723 266.58 Q524.005 266.58 520.927 263.895 Q517.871 261.21 517.871 256.186 Q517.871 252.876 519.769 250.585 Q521.667 248.293 525.047 247.506 M523.334 240.122 Q523.334 242.807 525.001 244.312 Q526.69 245.816 529.723 245.816 Q532.732 245.816 534.422 244.312 Q536.135 242.807 536.135 240.122 Q536.135 237.437 534.422 235.932 Q532.732 234.427 529.723 234.427 Q526.69 234.427 525.001 235.932 Q523.334 237.437 523.334 240.122 Z" fill="#000000" fill-rule="nonzero" fill-opacity="1" /><path clip-path="url(#clip080)" d="M559.885 234.427 Q556.274 234.427 554.445 237.992 Q552.639 241.534 552.639 248.663 Q552.639 255.77 554.445 259.335 Q556.274 262.876 559.885 262.876 Q563.519 262.876 565.324 259.335 Q567.153 255.77 567.153 248.663 Q567.153 241.534 565.324 237.992 Q563.519 234.427 559.885 234.427 M559.885 230.724 Q565.695 230.724 568.75 235.33 Q571.829 239.913 571.829 248.663 Q571.829 257.39 568.75 261.997 Q565.695 266.58 559.885 266.58 Q554.075 266.58 550.996 261.997 Q547.94 257.39 547.94 248.663 Q547.94 239.913 550.996 235.33 Q554.075 230.724 559.885 230.724 Z" fill="#000000" fill-rule="nonzero" fill-opacity="1" /></svg>
